<svg width="327" height="22" viewBox="0 0 327 22" fill="none" xmlns="http://www.w3.org/2000/svg">
<path d="M33.3041 18V16.2738L37.8836 11.7845C38.3216 11.3422 38.6866 10.9493 38.9786 10.6058C39.2706 10.2623 39.4896 9.92953 39.6356 9.60749C39.7816 9.28544 39.8546 8.94193 39.8546 8.57694C39.8546 8.16043 39.7601 7.80403 39.5712 7.50775C39.3822 7.20718 39.1224 6.9753 38.7918 6.81213C38.4612 6.64896 38.0854 6.56738 37.6646 6.56738C37.231 6.56738 36.8509 6.65755 36.5246 6.8379C36.1983 7.01395 35.9449 7.26514 35.7646 7.59148C35.5885 7.91782 35.5005 8.30642 35.5005 8.75729H33.2269C33.2269 7.91997 33.4179 7.19215 33.8001 6.57382C34.1823 5.95549 34.7083 5.47672 35.3781 5.1375C36.0523 4.79827 36.8252 4.62866 37.6968 4.62866C38.5814 4.62866 39.3586 4.79398 40.0285 5.12461C40.6983 5.45525 41.2179 5.90826 41.5872 6.48365C41.9607 7.05903 42.1475 7.71601 42.1475 8.45457C42.1475 8.94837 42.0531 9.43358 41.8641 9.91021C41.6752 10.3868 41.3424 10.915 40.8658 11.4947C40.3934 12.0744 39.73 12.7764 38.8755 13.6009L36.6019 15.9131V16.0033H42.3472V18H33.3041ZM49.4451 18.2512C48.3845 18.2512 47.4742 17.9828 46.7141 17.4461C45.9584 16.905 45.3766 16.1257 44.9686 15.108C44.565 14.0861 44.3632 12.8559 44.3632 11.4174C44.3675 9.97892 44.5714 8.75514 44.9751 7.74606C45.383 6.73269 45.9648 5.95978 46.7206 5.42734C47.4806 4.89489 48.3888 4.62866 49.4451 4.62866C50.5014 4.62866 51.4096 4.89489 52.1696 5.42734C52.9296 5.95978 53.5114 6.73269 53.9151 7.74606C54.323 8.75944 54.527 9.98321 54.527 11.4174C54.527 12.8602 54.323 14.0925 53.9151 15.1145C53.5114 16.1321 52.9296 16.9093 52.1696 17.4461C51.4138 17.9828 50.5057 18.2512 49.4451 18.2512ZM49.4451 16.2352C50.2695 16.2352 50.92 15.8294 51.3967 15.0179C51.8776 14.202 52.1181 13.0019 52.1181 11.4174C52.1181 10.3697 52.0086 9.48941 51.7896 8.77661C51.5706 8.06382 51.2614 7.52707 50.8621 7.16638C50.4627 6.8014 49.9904 6.6189 49.4451 6.6189C48.6249 6.6189 47.9765 7.02683 47.4999 7.84268C47.0233 8.65423 46.7828 9.8458 46.7785 11.4174C46.7742 12.4694 46.8794 13.354 47.0941 14.071C47.3131 14.7881 47.6223 15.3292 48.0216 15.6942C48.421 16.0548 48.8954 16.2352 49.4451 16.2352ZM56.6669 18V16.2738L61.2464 11.7845C61.6844 11.3422 62.0494 10.9493 62.3414 10.6058C62.6334 10.2623 62.8524 9.92953 62.9984 9.60749C63.1444 9.28544 63.2174 8.94193 63.2174 8.57694C63.2174 8.16043 63.1229 7.80403 62.934 7.50775C62.745 7.20718 62.4852 6.9753 62.1546 6.81213C61.824 6.64896 61.4483 6.56738 61.0274 6.56738C60.5938 6.56738 60.2137 6.65755 59.8874 6.8379C59.5611 7.01395 59.3077 7.26514 59.1274 7.59148C58.9513 7.91782 58.8633 8.30642 58.8633 8.75729H56.5897C56.5897 7.91997 56.7807 7.19215 57.1629 6.57382C57.5451 5.95549 58.0711 5.47672 58.7409 5.1375C59.4151 4.79827 60.188 4.62866 61.0597 4.62866C61.9442 4.62866 62.7214 4.79398 63.3913 5.12461C64.0611 5.45525 64.5807 5.90826 64.95 6.48365C65.3235 7.05903 65.5103 7.71601 65.5103 8.45457C65.5103 8.94837 65.4159 9.43358 65.2269 9.91021C65.038 10.3868 64.7052 10.915 64.2286 11.4947C63.7562 12.0744 63.0928 12.7764 62.2383 13.6009L59.9647 15.9131V16.0033H65.71V18H56.6669ZM72.6662 18.1803C71.7387 18.1803 70.9143 18.0215 70.1929 17.7037C69.4758 17.386 68.909 16.9437 68.4925 16.3769C68.076 15.8101 67.8548 15.1553 67.8291 14.4124H70.2508C70.2723 14.7688 70.3904 15.0801 70.6051 15.3463C70.8198 15.6083 71.1053 15.8122 71.4617 15.9582C71.8181 16.1042 72.2175 16.1772 72.6597 16.1772C73.1321 16.1772 73.5507 16.0956 73.9157 15.9325C74.2807 15.765 74.5662 15.5331 74.7724 15.2368C74.9785 14.9406 75.0794 14.5992 75.0751 14.2127C75.0794 13.8134 74.9763 13.4613 74.7659 13.1564C74.5555 12.8516 74.2506 12.6132 73.8513 12.4415C73.4563 12.2697 72.9796 12.1839 72.4214 12.1839H71.2556V10.3418H72.4214C72.8809 10.3418 73.2824 10.2623 73.6259 10.1034C73.9737 9.94456 74.2463 9.72128 74.4439 9.43358C74.6414 9.1416 74.738 8.80452 74.7337 8.42236C74.738 8.04879 74.6543 7.7246 74.4825 7.44978C74.3151 7.17068 74.0767 6.95383 73.7676 6.79925C73.4627 6.64467 73.1042 6.56738 72.6919 6.56738C72.2883 6.56738 71.9147 6.64037 71.5712 6.78637C71.2277 6.93236 70.9507 7.14062 70.7403 7.41114C70.5299 7.67736 70.4183 7.99511 70.4054 8.36439H68.106C68.1232 7.62583 68.3357 6.97745 68.7437 6.41924C69.1559 5.85673 69.7055 5.41875 70.3925 5.10529C71.0796 4.78754 71.8503 4.62866 72.7048 4.62866C73.5851 4.62866 74.3494 4.79398 74.9978 5.12461C75.6505 5.45095 76.155 5.89108 76.5114 6.445C76.8678 6.99892 77.046 7.61081 77.046 8.28066C77.0503 9.02351 76.8313 9.64613 76.389 10.1485C75.951 10.6509 75.3757 10.9794 74.6629 11.134V11.237C75.5904 11.3659 76.301 11.7094 76.7948 12.2676C77.2929 12.8215 77.5398 13.5107 77.5355 14.3351C77.5355 15.0737 77.3251 15.7349 76.9043 16.3189C76.4878 16.8986 75.9124 17.3538 75.1781 17.6844C74.4482 18.015 73.6108 18.1803 72.6662 18.1803ZM84.3742 18V4.80901H92.8246V6.81213H86.7637V10.3933H92.2449V12.3964H86.7637V18H84.3742ZM94.7569 18V8.10676H97.0177V9.75563H97.1207C97.3011 9.18454 97.6102 8.74441 98.0482 8.43524C98.4905 8.12178 98.995 7.96506 99.5618 7.96506C99.6906 7.96506 99.8345 7.9715 99.9934 7.98438C100.157 7.99297 100.292 8.008 100.399 8.02946V10.1743C100.3 10.1399 100.144 10.1099 99.929 10.0841C99.7186 10.0541 99.5146 10.039 99.3171 10.039C98.892 10.039 98.5098 10.1313 98.1706 10.316C97.8357 10.4963 97.5716 10.7475 97.3784 11.0696C97.1851 11.3916 97.0885 11.763 97.0885 12.1839V18H94.7569ZM104.618 18.1997C103.991 18.1997 103.426 18.088 102.924 17.8647C102.426 17.6372 102.031 17.3022 101.739 16.86C101.451 16.4177 101.307 15.8724 101.307 15.224C101.307 14.6658 101.41 14.2042 101.616 13.8392C101.823 13.4742 102.104 13.1822 102.46 12.9632C102.817 12.7442 103.218 12.5789 103.665 12.4673C104.116 12.3513 104.581 12.2676 105.062 12.2161C105.642 12.1559 106.112 12.1023 106.473 12.055C106.834 12.0035 107.096 11.9262 107.259 11.8232C107.426 11.7158 107.51 11.5505 107.51 11.3272V11.2886C107.51 10.8034 107.366 10.4276 107.078 10.1614C106.791 9.89518 106.376 9.76207 105.835 9.76207C105.264 9.76207 104.811 9.8866 104.476 10.1356C104.146 10.3847 103.922 10.6788 103.806 11.018L101.629 10.7089C101.801 10.1077 102.085 9.60534 102.48 9.20171C102.875 8.79379 103.358 8.48892 103.929 8.2871C104.5 8.08099 105.131 7.97794 105.822 7.97794C106.299 7.97794 106.773 8.03376 107.246 8.1454C107.718 8.25704 108.15 8.44168 108.54 8.69932C108.931 8.95266 109.245 9.29833 109.481 9.73631C109.721 10.1743 109.842 10.7218 109.842 11.3787V18H107.6V16.641H107.523C107.381 16.9158 107.181 17.1734 106.924 17.4139C106.67 17.65 106.351 17.8411 105.964 17.9871C105.582 18.1288 105.133 18.1997 104.618 18.1997ZM105.223 16.4864C105.691 16.4864 106.097 16.3941 106.441 16.2094C106.784 16.0205 107.048 15.7714 107.233 15.4623C107.422 15.1531 107.516 14.816 107.516 14.4511V13.2853C107.443 13.3454 107.319 13.4012 107.143 13.4527C106.971 13.5042 106.778 13.5493 106.563 13.588C106.348 13.6266 106.136 13.661 105.925 13.691C105.715 13.7211 105.533 13.7468 105.378 13.7683C105.03 13.8156 104.719 13.8928 104.444 14.0002C104.169 14.1075 103.952 14.2578 103.794 14.4511C103.635 14.64 103.555 14.8847 103.555 15.1853C103.555 15.6147 103.712 15.9389 104.025 16.1579C104.339 16.3769 104.738 16.4864 105.223 16.4864ZM114.518 12.2032V18H112.186V8.10676H114.415V9.78783H114.531C114.758 9.23392 115.121 8.79379 115.619 8.46745C116.121 8.14111 116.742 7.97794 117.48 7.97794C118.163 7.97794 118.758 8.12393 119.265 8.41592C119.776 8.70791 120.171 9.13086 120.45 9.68478C120.733 10.2387 120.873 10.9107 120.868 11.7008V18H118.537V12.0615C118.537 11.4002 118.365 10.8828 118.021 10.5092C117.682 10.1356 117.212 9.94886 116.611 9.94886C116.203 9.94886 115.84 10.039 115.522 10.2194C115.209 10.3954 114.962 10.6509 114.782 10.9858C114.606 11.3208 114.518 11.7265 114.518 12.2032ZM127.541 21.9161C126.704 21.9161 125.985 21.8023 125.383 21.5747C124.782 21.3514 124.299 21.0508 123.934 20.673C123.569 20.2951 123.316 19.8765 123.174 19.417L125.274 18.9082C125.368 19.1014 125.506 19.2925 125.686 19.4814C125.867 19.6746 126.109 19.8335 126.414 19.958C126.723 20.0869 127.112 20.1513 127.58 20.1513C128.241 20.1513 128.789 19.9902 129.222 19.6682C129.656 19.3504 129.873 18.8266 129.873 18.0966V16.2223H129.757C129.637 16.4628 129.461 16.7097 129.229 16.963C129.001 17.2164 128.698 17.4289 128.321 17.6007C127.947 17.7724 127.477 17.8583 126.91 17.8583C126.15 17.8583 125.461 17.6801 124.842 17.3237C124.228 16.963 123.739 16.4263 123.374 15.7135C123.013 14.9964 122.833 14.099 122.833 13.0212C122.833 11.9348 123.013 11.018 123.374 10.2709C123.739 9.51946 124.231 8.95052 124.849 8.56406C125.467 8.17331 126.156 7.97794 126.916 7.97794C127.496 7.97794 127.973 8.0767 128.346 8.27422C128.724 8.46745 129.025 8.70147 129.248 8.97628C129.471 9.2468 129.641 9.50229 129.757 9.74275H129.886V8.10676H132.185V18.161C132.185 19.0069 131.983 19.7068 131.58 20.2608C131.176 20.8147 130.624 21.229 129.924 21.5039C129.224 21.7787 128.43 21.9161 127.541 21.9161ZM127.56 16.0291C128.054 16.0291 128.475 15.9088 128.823 15.6684C129.171 15.4279 129.435 15.0823 129.615 14.6314C129.795 14.1805 129.886 13.6395 129.886 13.0083C129.886 12.3857 129.795 11.8403 129.615 11.3723C129.439 10.9043 129.177 10.5414 128.829 10.2838C128.486 10.0219 128.063 9.89089 127.56 9.89089C127.041 9.89089 126.607 10.0261 126.259 10.2967C125.912 10.5672 125.65 10.9386 125.474 11.4109C125.298 11.879 125.21 12.4114 125.21 13.0083C125.21 13.6137 125.298 14.144 125.474 14.5992C125.654 15.0501 125.918 15.4022 126.266 15.6555C126.618 15.9046 127.049 16.0291 127.56 16.0291ZM134.575 18V8.10676H136.906V18H134.575ZM135.747 6.70264C135.378 6.70264 135.06 6.58026 134.794 6.3355C134.527 6.08646 134.394 5.78803 134.394 5.44022C134.394 5.08811 134.527 4.78969 134.794 4.54493C135.06 4.29588 135.378 4.17136 135.747 4.17136C136.12 4.17136 136.438 4.29588 136.7 4.54493C136.966 4.78969 137.099 5.08811 137.099 5.44022C137.099 5.78803 136.966 6.08646 136.7 6.3355C136.438 6.58026 136.12 6.70264 135.747 6.70264ZM139.304 21.71V8.10676H141.597V9.74275H141.732C141.852 9.50229 142.022 9.2468 142.241 8.97628C142.46 8.70147 142.756 8.46745 143.13 8.27422C143.503 8.0767 143.98 7.97794 144.56 7.97794C145.324 7.97794 146.013 8.17331 146.627 8.56406C147.246 8.95052 147.735 9.52376 148.096 10.2838C148.461 11.0395 148.643 11.967 148.643 13.0663C148.643 14.1526 148.465 15.0758 148.109 15.8359C147.752 16.5959 147.267 17.1756 146.653 17.5749C146.039 17.9742 145.343 18.1739 144.566 18.1739C143.999 18.1739 143.529 18.0794 143.156 17.8905C142.782 17.7016 142.481 17.474 142.254 17.2078C142.031 16.9372 141.857 16.6818 141.732 16.4413H141.635V21.71H139.304ZM141.59 13.0534C141.59 13.6932 141.681 14.2535 141.861 14.7345C142.046 15.2154 142.31 15.5911 142.653 15.8616C143.001 16.1278 143.422 16.261 143.916 16.261C144.431 16.261 144.862 16.1235 145.21 15.8487C145.558 15.5696 145.82 15.1896 145.996 14.7087C146.176 14.2235 146.267 13.6717 146.267 13.0534C146.267 12.4393 146.178 11.894 146.002 11.4174C145.826 10.9408 145.564 10.5672 145.217 10.2967C144.869 10.0261 144.435 9.89089 143.916 9.89089C143.417 9.89089 142.995 10.0219 142.647 10.2838C142.299 10.5457 142.035 10.9128 141.854 11.3852C141.678 11.8575 141.59 12.4136 141.59 13.0534ZM153.487 18.1997C152.86 18.1997 152.295 18.088 151.793 17.8647C151.295 17.6372 150.9 17.3022 150.608 16.86C150.32 16.4177 150.176 15.8724 150.176 15.224C150.176 14.6658 150.279 14.2042 150.485 13.8392C150.691 13.4742 150.973 13.1822 151.329 12.9632C151.685 12.7442 152.087 12.5789 152.534 12.4673C152.984 12.3513 153.45 12.2676 153.931 12.2161C154.511 12.1559 154.981 12.1023 155.342 12.055C155.702 12.0035 155.964 11.9262 156.128 11.8232C156.295 11.7158 156.379 11.5505 156.379 11.3272V11.2886C156.379 10.8034 156.235 10.4276 155.947 10.1614C155.66 9.89518 155.245 9.76207 154.704 9.76207C154.133 9.76207 153.68 9.8866 153.345 10.1356C153.014 10.3847 152.791 10.6788 152.675 11.018L150.498 10.7089C150.67 10.1077 150.953 9.60534 151.348 9.20171C151.743 8.79379 152.226 8.48892 152.798 8.2871C153.369 8.08099 154 7.97794 154.691 7.97794C155.168 7.97794 155.642 8.03376 156.115 8.1454C156.587 8.25704 157.019 8.44168 157.409 8.69932C157.8 8.95266 158.113 9.29833 158.35 9.73631C158.59 10.1743 158.71 10.7218 158.71 11.3787V18H156.469V16.641H156.392C156.25 16.9158 156.05 17.1734 155.793 17.4139C155.539 17.65 155.219 17.8411 154.833 17.9871C154.451 18.1288 154.002 18.1997 153.487 18.1997ZM154.092 16.4864C154.56 16.4864 154.966 16.3941 155.31 16.2094C155.653 16.0205 155.917 15.7714 156.102 15.4623C156.291 15.1531 156.385 14.816 156.385 14.4511V13.2853C156.312 13.3454 156.188 13.4012 156.012 13.4527C155.84 13.5042 155.647 13.5493 155.432 13.588C155.217 13.6266 155.005 13.661 154.794 13.691C154.584 13.7211 154.401 13.7468 154.247 13.7683C153.899 13.8156 153.588 13.8928 153.313 14.0002C153.038 14.1075 152.821 14.2578 152.662 14.4511C152.503 14.64 152.424 14.8847 152.424 15.1853C152.424 15.6147 152.581 15.9389 152.894 16.1579C153.208 16.3769 153.607 16.4864 154.092 16.4864ZM163.386 12.2032V18H161.055V8.10676H163.283V9.78783H163.399C163.627 9.23392 163.99 8.79379 164.488 8.46745C164.99 8.14111 165.611 7.97794 166.349 7.97794C167.032 7.97794 167.627 8.12393 168.133 8.41592C168.644 8.70791 169.039 9.13086 169.319 9.68478C169.602 10.2387 169.741 10.9107 169.737 11.7008V18H167.406V12.0615C167.406 11.4002 167.234 10.8828 166.89 10.5092C166.551 10.1356 166.081 9.94886 165.48 9.94886C165.072 9.94886 164.709 10.039 164.391 10.2194C164.078 10.3954 163.831 10.6509 163.651 10.9858C163.474 11.3208 163.386 11.7265 163.386 12.2032ZM172.107 18V8.10676H174.439V18H172.107ZM173.28 6.70264C172.91 6.70264 172.593 6.58026 172.326 6.3355C172.06 6.08646 171.927 5.78803 171.927 5.44022C171.927 5.08811 172.06 4.78969 172.326 4.54493C172.593 4.29588 172.91 4.17136 173.28 4.17136C173.653 4.17136 173.971 4.29588 174.233 4.54493C174.499 4.78969 174.632 5.08811 174.632 5.44022C174.632 5.78803 174.499 6.08646 174.233 6.3355C173.971 6.58026 173.653 6.70264 173.28 6.70264ZM181.439 18V4.80901H183.77V9.74275H183.867C183.987 9.50229 184.157 9.2468 184.376 8.97628C184.595 8.70147 184.891 8.46745 185.265 8.27422C185.638 8.0767 186.115 7.97794 186.694 7.97794C187.459 7.97794 188.148 8.17331 188.762 8.56406C189.38 8.95052 189.87 9.52376 190.231 10.2838C190.596 11.0395 190.778 11.967 190.778 13.0663C190.778 14.1526 190.6 15.0758 190.243 15.8359C189.887 16.5959 189.402 17.1756 188.788 17.5749C188.174 17.9742 187.478 18.1739 186.701 18.1739C186.134 18.1739 185.664 18.0794 185.29 17.8905C184.917 17.7016 184.616 17.474 184.389 17.2078C184.165 16.9372 183.991 16.6818 183.867 16.4413H183.732V18H181.439ZM183.725 13.0534C183.725 13.6932 183.815 14.2535 183.996 14.7345C184.18 15.2154 184.444 15.5911 184.788 15.8616C185.136 16.1278 185.557 16.261 186.05 16.261C186.566 16.261 186.997 16.1235 187.345 15.8487C187.693 15.5696 187.955 15.1896 188.131 14.7087C188.311 14.2235 188.401 13.6717 188.401 13.0534C188.401 12.4393 188.313 11.894 188.137 11.4174C187.961 10.9408 187.699 10.5672 187.351 10.2967C187.004 10.0261 186.57 9.89089 186.05 9.89089C185.552 9.89089 185.129 10.0219 184.782 10.2838C184.434 10.5457 184.17 10.9128 183.989 11.3852C183.813 11.8575 183.725 12.4136 183.725 13.0534ZM193.873 21.71C193.555 21.71 193.261 21.6842 192.991 21.6327C192.724 21.5854 192.512 21.5296 192.353 21.4652L192.894 19.6489C193.233 19.7476 193.536 19.7949 193.802 19.7906C194.068 19.7863 194.302 19.7025 194.504 19.5394C194.71 19.3805 194.884 19.1143 195.026 18.7407L195.226 18.2061L191.638 8.10676H194.111L196.391 15.5782H196.494L198.781 8.10676H201.261L197.299 19.198C197.115 19.7219 196.87 20.1706 196.565 20.5442C196.26 20.922 195.887 21.2097 195.444 21.4072C195.007 21.6091 194.483 21.71 193.873 21.71ZM207.476 18V4.80901H212.423C213.436 4.80901 214.286 4.98506 214.973 5.33716C215.665 5.68927 216.186 6.18307 216.538 6.81857C216.895 7.44978 217.073 8.18619 217.073 9.02781C217.073 9.87371 216.893 10.608 216.532 11.2306C216.176 11.8489 215.65 12.3277 214.954 12.6669C214.258 13.0019 213.404 13.1693 212.391 13.1693H208.867V11.1855H212.068C212.661 11.1855 213.146 11.1039 213.524 10.9408C213.902 10.7733 214.181 10.5307 214.361 10.2129C214.546 9.89089 214.638 9.49585 214.638 9.02781C214.638 8.55977 214.546 8.16043 214.361 7.8298C214.177 7.49487 213.896 7.24153 213.518 7.06977C213.14 6.89372 212.652 6.80569 212.056 6.80569H209.866V18H207.476ZM214.291 12.0228L217.556 18H214.89L211.682 12.0228H214.291ZM219.17 18V8.10676H221.501V18H219.17ZM220.342 6.70264C219.973 6.70264 219.655 6.58026 219.389 6.3355C219.122 6.08646 218.989 5.78803 218.989 5.44022C218.989 5.08811 219.122 4.78969 219.389 4.54493C219.655 4.29588 219.973 4.17136 220.342 4.17136C220.715 4.17136 221.033 4.29588 221.295 4.54493C221.561 4.78969 221.694 5.08811 221.694 5.44022C221.694 5.78803 221.561 6.08646 221.295 6.3355C221.033 6.58026 220.715 6.70264 220.342 6.70264ZM223.77 18V16.5186L228.871 10.1228V10.039H223.937V8.10676H231.725V9.69766L226.868 15.984V16.0677H231.892V18H223.77ZM236.209 14.8955L236.203 12.0808H236.576L240.132 8.10676H242.856L238.483 12.9761H238L236.209 14.8955ZM234.084 18V4.80901H236.415V18H234.084ZM240.293 18L237.072 13.4978L238.644 11.8554L243.081 18H240.293ZM245.965 21.71C245.648 21.71 245.354 21.6842 245.083 21.6327C244.817 21.5854 244.604 21.5296 244.445 21.4652L244.986 19.6489C245.326 19.7476 245.628 19.7949 245.895 19.7906C246.161 19.7863 246.395 19.7025 246.597 19.5394C246.803 19.3805 246.977 19.1143 247.118 18.7407L247.318 18.2061L243.73 8.10676H246.204L248.484 15.5782H248.587L250.873 8.10676H253.353L249.392 19.198C249.207 19.7219 248.963 20.1706 248.658 20.5442C248.353 20.922 247.979 21.2097 247.537 21.4072C247.099 21.6091 246.575 21.71 245.965 21.71ZM255.07 18V4.80901H260.016C261.03 4.80901 261.88 4.99794 262.567 5.37581C263.258 5.75368 263.78 6.27324 264.132 6.93451C264.488 7.59148 264.667 8.33863 264.667 9.17595C264.667 10.0219 264.488 10.7733 264.132 11.4303C263.776 12.0872 263.25 12.6047 262.554 12.9825C261.858 13.3561 261.002 13.5429 259.984 13.5429H256.706V11.5784H259.662C260.255 11.5784 260.74 11.4754 261.118 11.2692C261.496 11.0631 261.775 10.7797 261.955 10.419C262.14 10.0584 262.232 9.64399 262.232 9.17595C262.232 8.70791 262.14 8.29569 261.955 7.93929C261.775 7.5829 261.493 7.30594 261.111 7.10841C260.733 6.9066 260.246 6.80569 259.649 6.80569H257.459V18H255.07ZM266.639 18V8.10676H268.9V9.75563H269.003C269.183 9.18454 269.492 8.74441 269.93 8.43524C270.373 8.12178 270.877 7.96506 271.444 7.96506C271.573 7.96506 271.717 7.9715 271.876 7.98438C272.039 7.99297 272.174 8.008 272.281 8.02946V10.1743C272.183 10.1399 272.026 10.1099 271.811 10.0841C271.601 10.0541 271.397 10.039 271.199 10.039C270.774 10.039 270.392 10.1313 270.053 10.316C269.718 10.4963 269.454 10.7475 269.261 11.0696C269.067 11.3916 268.971 11.763 268.971 12.1839V18H266.639ZM276.5 18.1997C275.873 18.1997 275.309 18.088 274.806 17.8647C274.308 17.6372 273.913 17.3022 273.621 16.86C273.333 16.4177 273.19 15.8724 273.19 15.224C273.19 14.6658 273.293 14.2042 273.499 13.8392C273.705 13.4742 273.986 13.1822 274.342 12.9632C274.699 12.7442 275.1 12.5789 275.547 12.4673C275.998 12.3513 276.464 12.2676 276.945 12.2161C277.524 12.1559 277.994 12.1023 278.355 12.055C278.716 12.0035 278.978 11.9262 279.141 11.8232C279.308 11.7158 279.392 11.5505 279.392 11.3272V11.2886C279.392 10.8034 279.248 10.4276 278.961 10.1614C278.673 9.89518 278.259 9.76207 277.718 9.76207C277.146 9.76207 276.693 9.8866 276.358 10.1356C276.028 10.3847 275.805 10.6788 275.689 11.018L273.512 10.7089C273.683 10.1077 273.967 9.60534 274.362 9.20171C274.757 8.79379 275.24 8.48892 275.811 8.2871C276.382 8.08099 277.013 7.97794 277.705 7.97794C278.181 7.97794 278.656 8.03376 279.128 8.1454C279.6 8.25704 280.032 8.44168 280.423 8.69932C280.813 8.95266 281.127 9.29833 281.363 9.73631C281.604 10.1743 281.724 10.7218 281.724 11.3787V18H279.482V16.641H279.405C279.263 16.9158 279.064 17.1734 278.806 17.4139C278.553 17.65 278.233 17.8411 277.846 17.9871C277.464 18.1288 277.015 18.1997 276.5 18.1997ZM277.106 16.4864C277.574 16.4864 277.979 16.3941 278.323 16.2094C278.666 16.0205 278.931 15.7714 279.115 15.4623C279.304 15.1531 279.399 14.816 279.399 14.4511V13.2853C279.326 13.3454 279.201 13.4012 279.025 13.4527C278.853 13.5042 278.66 13.5493 278.445 13.588C278.231 13.6266 278.018 13.661 277.808 13.691C277.597 13.7211 277.415 13.7468 277.26 13.7683C276.912 13.8156 276.601 13.8928 276.326 14.0002C276.051 14.1075 275.835 14.2578 275.676 14.4511C275.517 14.64 275.437 14.8847 275.437 15.1853C275.437 15.6147 275.594 15.9389 275.908 16.1579C276.221 16.3769 276.62 16.4864 277.106 16.4864ZM289.008 8.10676V9.91021H283.321V8.10676H289.008ZM284.725 5.7365H287.057V15.0243C287.057 15.3378 287.104 15.5782 287.199 15.7457C287.297 15.9088 287.426 16.0205 287.585 16.0806C287.744 16.1407 287.92 16.1708 288.113 16.1708C288.259 16.1708 288.392 16.16 288.512 16.1386C288.637 16.1171 288.731 16.0978 288.796 16.0806L289.189 17.9034C289.064 17.9463 288.886 17.9936 288.654 18.0451C288.427 18.0966 288.147 18.1267 287.817 18.1353C287.233 18.1524 286.707 18.0644 286.239 17.8712C285.771 17.6737 285.399 17.3688 285.125 16.9566C284.854 16.5444 284.721 16.0291 284.725 15.4108V5.7365ZM293.805 18.1997C293.178 18.1997 292.614 18.088 292.111 17.8647C291.613 17.6372 291.218 17.3022 290.926 16.86C290.639 16.4177 290.495 15.8724 290.495 15.224C290.495 14.6658 290.598 14.2042 290.804 13.8392C291.01 13.4742 291.291 13.1822 291.648 12.9632C292.004 12.7442 292.405 12.5789 292.852 12.4673C293.303 12.3513 293.769 12.2676 294.25 12.2161C294.829 12.1559 295.3 12.1023 295.66 12.055C296.021 12.0035 296.283 11.9262 296.446 11.8232C296.614 11.7158 296.697 11.5505 296.697 11.3272V11.2886C296.697 10.8034 296.553 10.4276 296.266 10.1614C295.978 9.89518 295.564 9.76207 295.023 9.76207C294.452 9.76207 293.999 9.8866 293.664 10.1356C293.333 10.3847 293.11 10.6788 292.994 11.018L290.817 10.7089C290.988 10.1077 291.272 9.60534 291.667 9.20171C292.062 8.79379 292.545 8.48892 293.116 8.2871C293.687 8.08099 294.318 7.97794 295.01 7.97794C295.486 7.97794 295.961 8.03376 296.433 8.1454C296.906 8.25704 297.337 8.44168 297.728 8.69932C298.119 8.95266 298.432 9.29833 298.668 9.73631C298.909 10.1743 299.029 10.7218 299.029 11.3787V18H296.787V16.641H296.71C296.568 16.9158 296.369 17.1734 296.111 17.4139C295.858 17.65 295.538 17.8411 295.151 17.9871C294.769 18.1288 294.321 18.1997 293.805 18.1997ZM294.411 16.4864C294.879 16.4864 295.285 16.3941 295.628 16.2094C295.972 16.0205 296.236 15.7714 296.42 15.4623C296.609 15.1531 296.704 14.816 296.704 14.4511V13.2853C296.631 13.3454 296.506 13.4012 296.33 13.4527C296.158 13.5042 295.965 13.5493 295.75 13.588C295.536 13.6266 295.323 13.661 295.113 13.691C294.902 13.7211 294.72 13.7468 294.565 13.7683C294.218 13.8156 293.906 13.8928 293.631 14.0002C293.357 14.1075 293.14 14.2578 292.981 14.4511C292.822 14.64 292.743 14.8847 292.743 15.1853C292.743 15.6147 292.899 15.9389 293.213 16.1579C293.526 16.3769 293.926 16.4864 294.411 16.4864ZM301.373 18V8.10676H303.602V9.78783H303.718C303.924 9.22103 304.265 8.77876 304.742 8.46101C305.219 8.13896 305.788 7.97794 306.449 7.97794C307.119 7.97794 307.683 8.14111 308.143 8.46745C308.607 8.78949 308.933 9.22962 309.122 9.78783H309.225C309.444 9.23821 309.813 8.80023 310.333 8.47389C310.857 8.14325 311.477 7.97794 312.194 7.97794C313.104 7.97794 313.847 8.26563 314.423 8.84102C314.998 9.41641 315.286 10.2559 315.286 11.3594V18H312.948V11.7201C312.948 11.1061 312.785 10.6574 312.458 10.374C312.132 10.0863 311.733 9.94242 311.26 9.94242C310.698 9.94242 310.258 10.1185 309.94 10.4706C309.626 10.8184 309.47 11.2714 309.47 11.8296V18H307.183V11.6235C307.183 11.1125 307.028 10.7046 306.719 10.3997C306.414 10.0949 306.015 9.94242 305.521 9.94242C305.186 9.94242 304.882 10.0283 304.607 10.2001C304.332 10.3675 304.113 10.6058 303.95 10.915C303.787 11.2199 303.705 11.5763 303.705 11.9842V18H301.373ZM320.498 18.1997C319.871 18.1997 319.306 18.088 318.804 17.8647C318.306 17.6372 317.911 17.3022 317.619 16.86C317.331 16.4177 317.187 15.8724 317.187 15.224C317.187 14.6658 317.29 14.2042 317.497 13.8392C317.703 13.4742 317.984 13.1822 318.34 12.9632C318.697 12.7442 319.098 12.5789 319.545 12.4673C319.996 12.3513 320.462 12.2676 320.942 12.2161C321.522 12.1559 321.992 12.1023 322.353 12.055C322.714 12.0035 322.976 11.9262 323.139 11.8232C323.306 11.7158 323.39 11.5505 323.39 11.3272V11.2886C323.39 10.8034 323.246 10.4276 322.958 10.1614C322.671 9.89518 322.256 9.76207 321.715 9.76207C321.144 9.76207 320.691 9.8866 320.356 10.1356C320.026 10.3847 319.802 10.6788 319.686 11.018L317.509 10.7089C317.681 10.1077 317.965 9.60534 318.36 9.20171C318.755 8.79379 319.238 8.48892 319.809 8.2871C320.38 8.08099 321.011 7.97794 321.703 7.97794C322.179 7.97794 322.654 8.03376 323.126 8.1454C323.598 8.25704 324.03 8.44168 324.421 8.69932C324.811 8.95266 325.125 9.29833 325.361 9.73631C325.601 10.1743 325.722 10.7218 325.722 11.3787V18H323.48V16.641H323.403C323.261 16.9158 323.062 17.1734 322.804 17.4139C322.551 17.65 322.231 17.8411 321.844 17.9871C321.462 18.1288 321.013 18.1997 320.498 18.1997ZM321.103 16.4864C321.572 16.4864 321.977 16.3941 322.321 16.2094C322.664 16.0205 322.928 15.7714 323.113 15.4623C323.302 15.1531 323.396 14.816 323.396 14.4511V13.2853C323.323 13.3454 323.199 13.4012 323.023 13.4527C322.851 13.5042 322.658 13.5493 322.443 13.588C322.229 13.6266 322.016 13.661 321.806 13.691C321.595 13.7211 321.413 13.7468 321.258 13.7683C320.91 13.8156 320.599 13.8928 320.324 14.0002C320.049 14.1075 319.832 14.2578 319.674 14.4511C319.515 14.64 319.435 14.8847 319.435 15.1853C319.435 15.6147 319.592 15.9389 319.905 16.1579C320.219 16.3769 320.618 16.4864 321.103 16.4864Z" fill="white"/>
<circle cx="11" cy="11" r="10.5" stroke="white"/>
<path d="M16.8524 9.25968H14.4435C14.3748 8.86464 14.2481 8.51468 14.0635 8.20981C13.8788 7.90065 13.6491 7.63872 13.3743 7.42402C13.0995 7.20932 12.786 7.0483 12.4339 6.94095C12.0861 6.82931 11.7104 6.77349 11.3067 6.77349C10.5897 6.77349 9.95416 6.95383 9.40024 7.31452C8.84632 7.67092 8.41263 8.19478 8.09917 8.88611C7.78572 9.57314 7.62899 10.4126 7.62899 11.4045C7.62899 12.4136 7.78572 13.2638 8.09917 13.9551C8.41693 14.6421 8.85061 15.1617 9.40024 15.5138C9.95416 15.8616 10.5875 16.0355 11.3003 16.0355C11.6954 16.0355 12.0646 15.984 12.4081 15.8809C12.756 15.7736 13.0673 15.6169 13.3421 15.4108C13.6212 15.2046 13.8552 14.9513 14.0441 14.6507C14.2374 14.3501 14.3705 14.0066 14.4435 13.6202L16.8524 13.6331C16.7622 14.26 16.5668 14.8482 16.2663 15.3979C15.97 15.9475 15.5814 16.4327 15.1004 16.8535C14.6195 17.27 14.057 17.5964 13.4129 17.8325C12.7688 18.0644 12.0539 18.1803 11.2681 18.1803C10.1087 18.1803 9.0739 17.912 8.16358 17.3752C7.25327 16.8385 6.53618 16.0634 6.01232 15.0501C5.48846 14.0367 5.22653 12.8215 5.22653 11.4045C5.22653 9.98321 5.4906 8.76802 6.01876 7.75895C6.54691 6.74558 7.26615 5.97052 8.17646 5.43378C9.08678 4.89703 10.1173 4.62866 11.2681 4.62866C12.0024 4.62866 12.6851 4.73172 13.3163 4.93783C13.9475 5.14394 14.51 5.44666 15.0038 5.846C15.4976 6.24104 15.9034 6.72625 16.2212 7.30164C16.5432 7.87274 16.7536 8.52542 16.8524 9.25968Z" fill="white"/>
</svg>
