<svg width="583" height="204" viewBox="0 0 583 204" fill="none" xmlns="http://www.w3.org/2000/svg">
<g filter="url(#filter0_d_204_326)">
<rect x="6.5" y="2.5" width="570" height="191" rx="27.5" stroke="#6928E6" stroke-width="5"/>
<rect x="42" y="38" width="120" height="119" rx="25" fill="#6928E6"/>
<path d="M125.833 85.3332L101.5 100.542L77.1668 85.3332V79.2498L101.5 94.4582L125.833 79.2498M125.833 73.1665H77.1668C73.7906 73.1665 71.0835 75.8736 71.0835 79.2498V115.75C71.0835 117.363 71.7244 118.911 72.8653 120.051C74.0061 121.192 75.5534 121.833 77.1668 121.833H125.833C127.447 121.833 128.994 121.192 130.135 120.051C131.276 118.911 131.917 117.363 131.917 115.75V79.2498C131.917 77.6364 131.276 76.0891 130.135 74.9483C128.994 73.8074 127.447 73.1665 125.833 73.1665Z" fill="#F8F8F8"/>
<path d="M200.628 82.7207V63.9856H213.253V67.2515H204.589V71.7157H212.603V74.9815H204.589V79.4549H213.289V82.7207H200.628ZM216.329 82.7207V68.6694H220.043V71.1485H220.207C220.5 70.3252 220.988 69.6757 221.671 69.2C222.354 68.7243 223.171 68.4864 224.123 68.4864C225.086 68.4864 225.907 68.7273 226.583 69.2091C227.26 69.6848 227.712 70.3313 227.937 71.1485H228.084C228.37 70.3435 228.889 69.7001 229.639 69.2183C230.395 68.7304 231.289 68.4864 232.319 68.4864C233.63 68.4864 234.695 68.9042 235.512 69.7397C236.335 70.5691 236.747 71.7462 236.747 73.2708V82.7207H232.859V74.0393C232.859 73.2586 232.652 72.6732 232.237 72.2829C231.822 71.8925 231.304 71.6974 230.682 71.6974C229.974 71.6974 229.422 71.923 229.026 72.3743C228.63 72.8195 228.431 73.4081 228.431 74.1399V82.7207H224.653V73.9569C224.653 73.2678 224.455 72.7189 224.059 72.3103C223.668 71.9017 223.153 71.6974 222.513 71.6974C222.08 71.6974 221.689 71.8072 221.342 72.0267C221 72.2402 220.729 72.542 220.527 72.9324C220.326 73.3166 220.226 73.7679 220.226 74.2863V82.7207H216.329ZM243.832 82.986C242.935 82.986 242.137 82.8305 241.435 82.5194C240.734 82.2023 240.179 81.7358 239.77 81.1198C239.368 80.4977 239.167 79.7232 239.167 78.7962C239.167 78.0156 239.31 77.36 239.596 76.8294C239.883 76.2988 240.273 75.8719 240.767 75.5487C241.261 75.2255 241.822 74.9815 242.451 74.8168C243.085 74.6522 243.75 74.5363 244.445 74.4692C245.262 74.3838 245.921 74.3046 246.421 74.2314C246.921 74.1521 247.284 74.0362 247.509 73.8838C247.735 73.7313 247.848 73.5056 247.848 73.2068V73.1519C247.848 72.5725 247.665 72.1243 247.299 71.8072C246.939 71.49 246.427 71.3315 245.762 71.3315C245.061 71.3315 244.503 71.487 244.088 71.798C243.673 72.1029 243.399 72.4872 243.265 72.9507L239.661 72.6579C239.843 71.8041 240.203 71.0662 240.74 70.4441C241.277 69.8159 241.969 69.3342 242.817 68.9987C243.67 68.6572 244.658 68.4864 245.781 68.4864C246.561 68.4864 247.308 68.5779 248.022 68.7609C248.741 68.9438 249.379 69.2274 249.934 69.6116C250.495 69.9959 250.937 70.4898 251.26 71.0936C251.583 71.6913 251.745 72.4079 251.745 73.2434V82.7207H248.049V80.7722H247.939C247.714 81.2113 247.412 81.5986 247.034 81.934C246.656 82.2633 246.201 82.5225 245.671 82.7116C245.14 82.8945 244.527 82.986 243.832 82.986ZM244.948 80.2965C245.521 80.2965 246.027 80.1837 246.467 79.958C246.906 79.7263 247.25 79.4152 247.5 79.0249C247.75 78.6346 247.875 78.1925 247.875 77.6985V76.2073C247.753 76.2866 247.586 76.3598 247.372 76.4269C247.165 76.4879 246.93 76.5458 246.668 76.6007C246.406 76.6495 246.143 76.6952 245.881 76.7379C245.619 76.7745 245.381 76.8081 245.168 76.8385C244.71 76.9056 244.311 77.0124 243.969 77.1587C243.628 77.3051 243.362 77.5033 243.173 77.7533C242.984 77.9973 242.89 78.3022 242.89 78.6681C242.89 79.1987 243.082 79.6043 243.466 79.8848C243.856 80.1593 244.35 80.2965 244.948 80.2965ZM254.768 82.7207V68.6694H258.665V82.7207H254.768ZM256.726 66.8581C256.147 66.8581 255.65 66.666 255.235 66.2818C254.826 65.8915 254.622 65.4249 254.622 64.8821C254.622 64.3455 254.826 63.885 255.235 63.5008C255.65 63.1105 256.147 62.9153 256.726 62.9153C257.305 62.9153 257.799 63.1105 258.208 63.5008C258.623 63.885 258.83 64.3455 258.83 64.8821C258.83 65.4249 258.623 65.8915 258.208 66.2818C257.799 66.666 257.305 66.8581 256.726 66.8581ZM265.684 63.9856V82.7207H261.787V63.9856H265.684ZM278.071 82.7207H273.826L280.294 63.9856H285.398L291.857 82.7207H287.612L282.919 68.2669H282.773L278.071 82.7207ZM277.805 75.3566H287.831V78.4486H277.805V75.3566ZM298.562 82.9494C297.495 82.9494 296.528 82.675 295.662 82.1261C294.802 81.5711 294.119 80.7569 293.613 79.6836C293.113 78.6041 292.863 77.2807 292.863 75.7133C292.863 74.1033 293.122 72.7646 293.64 71.6974C294.159 70.624 294.848 69.822 295.708 69.2915C296.574 68.7548 297.522 68.4864 298.553 68.4864C299.34 68.4864 299.995 68.6206 300.52 68.889C301.05 69.1512 301.477 69.4805 301.8 69.8769C302.13 70.2672 302.38 70.6515 302.551 71.0296H302.67V63.9856H306.557V82.7207H302.715V80.4703H302.551C302.368 80.8606 302.108 81.2479 301.773 81.6321C301.444 82.0102 301.014 82.3243 300.483 82.5743C299.959 82.8244 299.318 82.9494 298.562 82.9494ZM299.797 79.8482C300.425 79.8482 300.956 79.6775 301.389 79.3359C301.828 78.9883 302.163 78.5035 302.395 77.8814C302.633 77.2594 302.752 76.5306 302.752 75.6951C302.752 74.8595 302.636 74.1338 302.404 73.5178C302.172 72.9019 301.837 72.4262 301.398 72.0907C300.959 71.7553 300.425 71.5876 299.797 71.5876C299.157 71.5876 298.617 71.7614 298.178 72.109C297.739 72.4567 297.406 72.9385 297.181 73.5544C296.955 74.1704 296.842 74.8839 296.842 75.6951C296.842 76.5123 296.955 77.235 297.181 77.8631C297.412 78.4852 297.745 78.9731 298.178 79.3268C298.617 79.6744 299.157 79.8482 299.797 79.8482ZM314.939 82.9494C313.872 82.9494 312.905 82.675 312.039 82.1261C311.179 81.5711 310.496 80.7569 309.99 79.6836C309.49 78.6041 309.24 77.2807 309.24 75.7133C309.24 74.1033 309.499 72.7646 310.018 71.6974C310.536 70.624 311.225 69.822 312.085 69.2915C312.951 68.7548 313.899 68.4864 314.93 68.4864C315.717 68.4864 316.372 68.6206 316.897 68.889C317.428 69.1512 317.854 69.4805 318.178 69.8769C318.507 70.2672 318.757 70.6515 318.928 71.0296H319.047V63.9856H322.935V82.7207H319.092V80.4703H318.928C318.745 80.8606 318.486 81.2479 318.15 81.6321C317.821 82.0102 317.391 82.3243 316.86 82.5743C316.336 82.8244 315.695 82.9494 314.939 82.9494ZM316.174 79.8482C316.802 79.8482 317.333 79.6775 317.766 79.3359C318.205 78.9883 318.541 78.5035 318.772 77.8814C319.01 77.2594 319.129 76.5306 319.129 75.6951C319.129 74.8595 319.013 74.1338 318.781 73.5178C318.55 72.9019 318.214 72.4262 317.775 72.0907C317.336 71.7553 316.802 71.5876 316.174 71.5876C315.534 71.5876 314.994 71.7614 314.555 72.109C314.116 72.4567 313.784 72.9385 313.558 73.5544C313.332 74.1704 313.219 74.8839 313.219 75.6951C313.219 76.5123 313.332 77.235 313.558 77.8631C313.79 78.4852 314.122 78.9731 314.555 79.3268C314.994 79.6744 315.534 79.8482 316.174 79.8482ZM326.139 82.7207V68.6694H329.917V71.1211H330.063C330.319 70.249 330.749 69.5903 331.353 69.1451C331.957 68.6938 332.652 68.4681 333.439 68.4681C333.634 68.4681 333.844 68.4803 334.07 68.5047C334.296 68.5291 334.494 68.5627 334.665 68.6054V72.0633C334.482 72.0084 334.229 71.9596 333.905 71.9169C333.582 71.8742 333.286 71.8529 333.018 71.8529C332.445 71.8529 331.932 71.9779 331.481 72.228C331.036 72.4719 330.682 72.8134 330.42 73.2525C330.164 73.6916 330.036 74.1978 330.036 74.7711V82.7207H326.139ZM342.429 82.9951C340.984 82.9951 339.739 82.7024 338.697 82.1169C337.66 81.5254 336.861 80.6899 336.3 79.6104C335.739 78.5248 335.458 77.2411 335.458 75.7591C335.458 74.3137 335.739 73.0452 336.3 71.9535C336.861 70.8619 337.651 70.0111 338.669 69.4012C339.694 68.7914 340.895 68.4864 342.273 68.4864C343.2 68.4864 344.063 68.6359 344.862 68.9347C345.667 69.2274 346.369 69.6696 346.966 70.2611C347.57 70.8527 348.04 71.5968 348.375 72.4933C348.711 73.3837 348.878 74.4265 348.878 75.6219V76.6922H337.013V74.2771H345.21C345.21 73.716 345.088 73.219 344.844 72.786C344.6 72.353 344.262 72.0145 343.829 71.7706C343.402 71.5205 342.905 71.3955 342.337 71.3955C341.746 71.3955 341.221 71.5327 340.764 71.8072C340.313 72.0755 339.959 72.4384 339.703 72.8958C339.447 73.3471 339.316 73.8502 339.309 74.4052V76.7013C339.309 77.3966 339.438 77.9973 339.694 78.5035C339.956 79.0097 340.325 79.4 340.801 79.6744C341.276 79.9489 341.84 80.0861 342.493 80.0861C342.926 80.0861 343.322 80.0251 343.682 79.9031C344.042 79.7812 344.35 79.5982 344.606 79.3542C344.862 79.1103 345.057 78.8115 345.192 78.4577L348.796 78.6956C348.613 79.5616 348.238 80.3178 347.671 80.9643C347.11 81.6046 346.384 82.1047 345.494 82.4646C344.609 82.8183 343.588 82.9951 342.429 82.9951ZM363.113 72.6762L359.545 72.8958C359.484 72.5908 359.353 72.3164 359.151 72.0724C358.95 71.8224 358.685 71.6242 358.356 71.4778C358.032 71.3254 357.645 71.2491 357.194 71.2491C356.59 71.2491 356.081 71.3772 355.666 71.6333C355.251 71.8834 355.044 72.2188 355.044 72.6396C355.044 72.9751 355.178 73.2586 355.447 73.4904C355.715 73.7221 356.175 73.9081 356.828 74.0484L359.371 74.5607C360.737 74.8412 361.756 75.2925 362.426 75.9146C363.097 76.5367 363.433 77.3539 363.433 78.3663C363.433 79.2872 363.161 80.0952 362.619 80.7905C362.082 81.4857 361.344 82.0285 360.405 82.4188C359.472 82.803 358.395 82.9951 357.176 82.9951C355.315 82.9951 353.833 82.6079 352.73 81.8333C351.632 81.0527 350.988 79.9916 350.799 78.6498L354.632 78.4486C354.748 79.0158 355.029 79.4488 355.474 79.7476C355.919 80.0403 356.489 80.1867 357.185 80.1867C357.868 80.1867 358.417 80.0556 358.831 79.7933C359.252 79.525 359.466 79.1804 359.472 78.7596C359.466 78.4059 359.316 78.1162 359.023 77.8906C358.731 77.6588 358.279 77.482 357.67 77.36L355.236 76.8751C353.864 76.6007 352.842 76.125 352.172 75.4481C351.507 74.7711 351.174 73.9081 351.174 72.8592C351.174 71.9566 351.418 71.179 351.906 70.5264C352.4 69.8739 353.092 69.3707 353.983 69.017C354.879 68.6633 355.928 68.4864 357.13 68.4864C358.904 68.4864 360.301 68.8615 361.32 69.6116C362.344 70.3618 362.942 71.3833 363.113 72.6762ZM377.578 72.6762L374.01 72.8958C373.949 72.5908 373.818 72.3164 373.617 72.0724C373.415 71.8224 373.15 71.6242 372.821 71.4778C372.498 71.3254 372.11 71.2491 371.659 71.2491C371.055 71.2491 370.546 71.3772 370.131 71.6333C369.717 71.8834 369.509 72.2188 369.509 72.6396C369.509 72.9751 369.643 73.2586 369.912 73.4904C370.18 73.7221 370.641 73.9081 371.293 74.0484L373.836 74.5607C375.202 74.8412 376.221 75.2925 376.892 75.9146C377.563 76.5367 377.898 77.3539 377.898 78.3663C377.898 79.2872 377.627 80.0952 377.084 80.7905C376.547 81.4857 375.809 82.0285 374.87 82.4188C373.937 82.803 372.86 82.9951 371.641 82.9951C369.781 82.9951 368.299 82.6079 367.195 81.8333C366.097 81.0527 365.454 79.9916 365.265 78.6498L369.098 78.4486C369.213 79.0158 369.494 79.4488 369.939 79.7476C370.384 80.0403 370.955 80.1867 371.65 80.1867C372.333 80.1867 372.882 80.0556 373.297 79.7933C373.717 79.525 373.931 79.1804 373.937 78.7596C373.931 78.4059 373.781 78.1162 373.489 77.8906C373.196 77.6588 372.745 77.482 372.135 77.36L369.701 76.8751C368.329 76.6007 367.308 76.125 366.637 75.4481C365.972 74.7711 365.64 73.9081 365.64 72.8592C365.64 71.9566 365.884 71.179 366.372 70.5264C366.866 69.8739 367.558 69.3707 368.448 69.017C369.345 68.6633 370.394 68.4864 371.595 68.4864C373.37 68.4864 374.766 68.8615 375.785 69.6116C376.809 70.3618 377.407 71.3833 377.578 72.6762Z" fill="black"/>
<path d="M198.553 123.809V106.177H201.525V108.298H201.7C201.856 107.986 202.076 107.655 202.36 107.304C202.643 106.948 203.027 106.645 203.512 106.394C203.996 106.138 204.614 106.01 205.365 106.01C206.356 106.01 207.249 106.263 208.045 106.77C208.846 107.271 209.481 108.014 209.948 108.999C210.421 109.978 210.658 111.18 210.658 112.605C210.658 114.013 210.427 115.21 209.965 116.195C209.503 117.18 208.874 117.931 208.078 118.449C207.282 118.967 206.381 119.225 205.373 119.225C204.639 119.225 204.029 119.103 203.545 118.858C203.061 118.613 202.671 118.318 202.376 117.973C202.087 117.623 201.861 117.291 201.7 116.98H201.575V123.809H198.553ZM201.516 112.589C201.516 113.418 201.633 114.144 201.867 114.767C202.106 115.391 202.449 115.878 202.894 116.228C203.345 116.573 203.89 116.746 204.53 116.746C205.198 116.746 205.757 116.568 206.208 116.212C206.659 115.85 206.998 115.357 207.227 114.734C207.46 114.105 207.577 113.39 207.577 112.589C207.577 111.793 207.463 111.086 207.235 110.468C207.007 109.85 206.667 109.366 206.216 109.015C205.766 108.665 205.204 108.49 204.53 108.49C203.885 108.49 203.336 108.659 202.886 108.999C202.435 109.338 202.092 109.814 201.859 110.426C201.631 111.039 201.516 111.759 201.516 112.589ZM221.419 113.607V106.177H224.441V119H221.511V116.721H221.377C221.088 117.439 220.612 118.026 219.949 118.482C219.293 118.939 218.483 119.167 217.52 119.167C216.68 119.167 215.937 118.981 215.291 118.608C214.651 118.229 214.15 117.681 213.788 116.963C213.427 116.24 213.246 115.366 213.246 114.342V106.177H216.268V113.874C216.268 114.687 216.49 115.332 216.936 115.811C217.381 116.29 217.965 116.529 218.689 116.529C219.134 116.529 219.565 116.42 219.983 116.203C220.4 115.986 220.742 115.663 221.01 115.235C221.282 114.801 221.419 114.258 221.419 113.607ZM233.952 106.177V108.515H226.58V106.177H233.952ZM228.4 103.105H231.422V115.143C231.422 115.549 231.483 115.861 231.606 116.078C231.734 116.29 231.901 116.434 232.107 116.512C232.313 116.59 232.541 116.629 232.791 116.629C232.98 116.629 233.153 116.615 233.309 116.587C233.47 116.56 233.593 116.534 233.676 116.512L234.185 118.875C234.024 118.93 233.793 118.992 233.492 119.058C233.197 119.125 232.836 119.164 232.407 119.175C231.65 119.198 230.968 119.083 230.362 118.833C229.755 118.577 229.274 118.182 228.918 117.648C228.567 117.113 228.394 116.445 228.4 115.644V103.105ZM244.652 113.607V106.177H247.674V119H244.744V116.721H244.61C244.321 117.439 243.845 118.026 243.183 118.482C242.526 118.939 241.716 119.167 240.753 119.167C239.913 119.167 239.17 118.981 238.524 118.608C237.884 118.229 237.383 117.681 237.022 116.963C236.66 116.24 236.479 115.366 236.479 114.342V106.177H239.501V113.874C239.501 114.687 239.724 115.332 240.169 115.811C240.614 116.29 241.199 116.529 241.922 116.529C242.367 116.529 242.799 116.42 243.216 116.203C243.633 115.986 243.976 115.663 244.243 115.235C244.516 114.801 244.652 114.258 244.652 113.607ZM250.782 119V106.177H253.712V108.314H253.845C254.079 107.574 254.48 107.004 255.048 106.603C255.621 106.197 256.275 105.993 257.009 105.993C257.176 105.993 257.363 106.002 257.569 106.018C257.78 106.03 257.956 106.049 258.095 106.077V108.857C257.967 108.812 257.764 108.773 257.485 108.74C257.213 108.701 256.948 108.682 256.692 108.682C256.141 108.682 255.646 108.801 255.206 109.041C254.772 109.274 254.43 109.6 254.179 110.017C253.929 110.435 253.804 110.916 253.804 111.462V119H250.782ZM260.103 119V106.177H263.125V119H260.103ZM261.622 104.357C261.143 104.357 260.731 104.199 260.386 103.881C260.041 103.558 259.869 103.172 259.869 102.721C259.869 102.264 260.041 101.878 260.386 101.56C260.731 101.238 261.143 101.076 261.622 101.076C262.106 101.076 262.518 101.238 262.857 101.56C263.203 101.878 263.375 102.264 263.375 102.721C263.375 103.172 263.203 103.558 262.857 103.881C262.518 104.199 262.106 104.357 261.622 104.357ZM266.065 119V117.08L272.677 108.79V108.682H266.282V106.177H276.375V108.239L270.081 116.387V116.496H276.592V119H266.065ZM282.188 114.976L282.18 111.328H282.664L287.272 106.177H290.803L285.135 112.488H284.509L282.188 114.976ZM279.433 119V101.903H282.455V119H279.433ZM287.481 119L283.307 113.165L285.344 111.036L291.095 119H287.481ZM294.833 123.809C294.422 123.809 294.04 123.775 293.69 123.708C293.345 123.647 293.069 123.575 292.863 123.491L293.564 121.137C294.004 121.265 294.397 121.326 294.742 121.321C295.087 121.315 295.39 121.207 295.652 120.995C295.919 120.789 296.144 120.444 296.328 119.96L296.587 119.267L291.937 106.177H295.142L298.098 115.861H298.231L301.195 106.177H304.409L299.275 120.553C299.035 121.232 298.718 121.813 298.323 122.298C297.928 122.787 297.444 123.16 296.87 123.416C296.303 123.678 295.624 123.809 294.833 123.809ZM312.786 119.326C311.412 119.326 310.232 118.978 309.247 118.282C308.267 117.581 307.513 116.571 306.984 115.252C306.461 113.927 306.2 112.333 306.2 110.468C306.205 108.604 306.47 107.017 306.993 105.71C307.521 104.396 308.276 103.394 309.255 102.704C310.24 102.014 311.417 101.669 312.786 101.669C314.156 101.669 315.333 102.014 316.318 102.704C317.303 103.394 318.057 104.396 318.58 105.71C319.109 107.023 319.373 108.609 319.373 110.468C319.373 112.338 319.109 113.935 318.58 115.26C318.057 116.579 317.303 117.586 316.318 118.282C315.338 118.978 314.161 119.326 312.786 119.326ZM312.786 116.713C313.855 116.713 314.698 116.187 315.316 115.135C315.939 114.077 316.251 112.522 316.251 110.468C316.251 109.11 316.109 107.969 315.825 107.045C315.541 106.121 315.141 105.426 314.623 104.958C314.105 104.485 313.493 104.249 312.786 104.249C311.723 104.249 310.883 104.777 310.265 105.835C309.647 106.887 309.336 108.431 309.33 110.468C309.325 111.832 309.461 112.978 309.739 113.908C310.023 114.837 310.424 115.538 310.941 116.011C311.459 116.479 312.074 116.713 312.786 116.713ZM328.083 101.669C328.901 101.675 329.697 101.819 330.47 102.103C331.249 102.381 331.951 102.838 332.574 103.472C333.197 104.101 333.693 104.944 334.06 106.002C334.427 107.059 334.611 108.367 334.611 109.925C334.616 111.395 334.461 112.708 334.143 113.866C333.832 115.018 333.384 115.992 332.799 116.788C332.215 117.584 331.511 118.19 330.687 118.608C329.863 119.025 328.937 119.234 327.907 119.234C326.827 119.234 325.87 119.022 325.035 118.599C324.206 118.176 323.535 117.597 323.023 116.863C322.511 116.128 322.197 115.288 322.08 114.342H325.127C325.283 115.021 325.6 115.561 326.079 115.961C326.563 116.356 327.173 116.554 327.907 116.554C329.093 116.554 330.005 116.039 330.645 115.01C331.285 113.98 331.605 112.55 331.605 110.719H331.489C331.216 111.208 330.862 111.631 330.428 111.987C329.994 112.338 329.502 112.608 328.951 112.797C328.405 112.986 327.827 113.081 327.214 113.081C326.213 113.081 325.311 112.842 324.509 112.363C323.714 111.884 323.082 111.228 322.614 110.393C322.152 109.558 321.919 108.604 321.913 107.529C321.913 106.416 322.169 105.417 322.681 104.532C323.199 103.642 323.92 102.941 324.843 102.429C325.767 101.911 326.847 101.658 328.083 101.669ZM328.091 104.173C327.49 104.173 326.947 104.321 326.463 104.616C325.984 104.905 325.606 105.3 325.328 105.801C325.055 106.297 324.919 106.85 324.919 107.463C324.924 108.069 325.06 108.62 325.328 109.116C325.6 109.611 325.97 110.003 326.438 110.293C326.911 110.582 327.451 110.727 328.057 110.727C328.508 110.727 328.928 110.641 329.318 110.468C329.708 110.296 330.047 110.056 330.337 109.75C330.632 109.438 330.86 109.085 331.021 108.69C331.188 108.295 331.269 107.877 331.263 107.438C331.263 106.853 331.124 106.313 330.846 105.818C330.573 105.323 330.197 104.925 329.719 104.624C329.246 104.324 328.703 104.173 328.091 104.173ZM343.468 119.234C342.227 119.234 341.125 119.025 340.162 118.608C339.205 118.19 338.454 117.62 337.908 116.896C337.369 116.167 337.101 115.341 337.107 114.417C337.101 113.699 337.257 113.039 337.575 112.438C337.892 111.837 338.32 111.336 338.86 110.936C339.406 110.529 340.012 110.27 340.68 110.159V110.042C339.801 109.848 339.088 109.399 338.543 108.698C338.003 107.991 337.736 107.176 337.741 106.252C337.736 105.373 337.981 104.588 338.476 103.898C338.971 103.208 339.65 102.665 340.513 102.27C341.376 101.869 342.361 101.669 343.468 101.669C344.565 101.669 345.542 101.869 346.399 102.27C347.261 102.665 347.94 103.208 348.436 103.898C348.937 104.588 349.187 105.373 349.187 106.252C349.187 107.176 348.911 107.991 348.36 108.698C347.815 109.399 347.111 109.848 346.248 110.042V110.159C346.916 110.27 347.517 110.529 348.052 110.936C348.591 111.336 349.02 111.837 349.337 112.438C349.66 113.039 349.821 113.699 349.821 114.417C349.821 115.341 349.549 116.167 349.003 116.896C348.458 117.62 347.707 118.19 346.749 118.608C345.798 119.025 344.704 119.234 343.468 119.234ZM343.468 116.846C344.108 116.846 344.665 116.738 345.138 116.521C345.611 116.298 345.978 115.986 346.24 115.586C346.502 115.185 346.635 114.723 346.641 114.2C346.635 113.654 346.493 113.173 346.215 112.755C345.942 112.333 345.567 112.001 345.088 111.762C344.615 111.523 344.075 111.403 343.468 111.403C342.856 111.403 342.311 111.523 341.832 111.762C341.353 112.001 340.975 112.333 340.697 112.755C340.424 113.173 340.29 113.654 340.296 114.2C340.29 114.723 340.418 115.185 340.68 115.586C340.942 115.981 341.309 116.29 341.782 116.512C342.261 116.735 342.823 116.846 343.468 116.846ZM343.468 109.057C343.992 109.057 344.453 108.951 344.854 108.74C345.26 108.528 345.581 108.234 345.814 107.855C346.048 107.477 346.168 107.04 346.173 106.544C346.168 106.055 346.051 105.626 345.823 105.259C345.594 104.886 345.277 104.599 344.871 104.399C344.465 104.193 343.997 104.09 343.468 104.09C342.929 104.09 342.453 104.193 342.041 104.399C341.635 104.599 341.317 104.886 341.089 105.259C340.867 105.626 340.758 106.055 340.764 106.544C340.758 107.04 340.869 107.477 341.097 107.855C341.331 108.228 341.651 108.523 342.058 108.74C342.469 108.951 342.94 109.057 343.468 109.057ZM363.344 123.792C361.59 123.792 360.032 123.553 358.669 123.074C357.311 122.601 356.164 121.902 355.229 120.979C354.294 120.06 353.584 118.939 353.1 117.614C352.616 116.29 352.371 114.776 352.366 113.073C352.371 111.409 352.619 109.909 353.109 108.573C353.598 107.232 354.313 106.085 355.254 105.134C356.195 104.176 357.344 103.442 358.702 102.93C360.06 102.418 361.604 102.162 363.335 102.162C364.966 102.162 366.41 102.409 367.668 102.905C368.931 103.4 369.997 104.09 370.865 104.975C371.739 105.854 372.399 106.884 372.844 108.064C373.295 109.238 373.52 110.513 373.52 111.887C373.52 112.839 373.448 113.741 373.303 114.592C373.158 115.438 372.911 116.189 372.56 116.846C372.215 117.503 371.745 118.026 371.149 118.416C370.554 118.8 369.808 119.008 368.912 119.042C368.35 119.07 367.857 119.017 367.434 118.883C367.011 118.75 366.669 118.541 366.407 118.257C366.151 117.968 365.99 117.614 365.923 117.197H365.823C365.695 117.531 365.453 117.837 365.097 118.115C364.746 118.388 364.312 118.602 363.794 118.758C363.277 118.908 362.701 118.969 362.066 118.942C361.387 118.908 360.758 118.752 360.18 118.474C359.606 118.19 359.105 117.795 358.677 117.289C358.254 116.777 357.926 116.159 357.692 115.435C357.458 114.712 357.341 113.891 357.341 112.973C357.341 112.076 357.469 111.286 357.725 110.602C357.981 109.917 358.323 109.333 358.752 108.848C359.186 108.364 359.676 107.986 360.221 107.713C360.767 107.435 361.329 107.257 361.908 107.179C362.509 107.095 363.074 107.104 363.602 107.204C364.131 107.304 364.571 107.457 364.921 107.663C365.278 107.869 365.5 108.094 365.589 108.339H365.706V107.404H368.035V115.352C368.041 115.769 368.141 116.106 368.336 116.362C368.536 116.618 368.814 116.746 369.171 116.746C369.616 116.746 369.975 116.571 370.248 116.22C370.526 115.864 370.726 115.318 370.849 114.584C370.977 113.844 371.038 112.897 371.032 111.745C371.038 110.799 370.913 109.942 370.657 109.174C370.406 108.4 370.05 107.721 369.588 107.137C369.126 106.553 368.572 106.066 367.927 105.676C367.287 105.281 366.574 104.983 365.79 104.783C365.005 104.583 364.167 104.482 363.277 104.482C361.913 104.482 360.714 104.691 359.679 105.108C358.643 105.52 357.775 106.107 357.074 106.87C356.378 107.632 355.852 108.537 355.496 109.583C355.146 110.624 354.97 111.776 354.97 113.039C354.97 114.392 355.154 115.591 355.521 116.637C355.894 117.678 356.44 118.555 357.157 119.267C357.875 119.98 358.763 120.519 359.821 120.887C360.884 121.254 362.105 121.438 363.485 121.438C364.12 121.438 364.74 121.388 365.347 121.287C365.954 121.187 366.499 121.07 366.983 120.937C367.468 120.803 367.84 120.686 368.102 120.586L368.812 122.707C368.467 122.885 367.999 123.057 367.409 123.224C366.825 123.391 366.179 123.528 365.472 123.633C364.771 123.739 364.061 123.792 363.344 123.792ZM362.759 116.546C363.466 116.546 364.031 116.409 364.454 116.137C364.877 115.858 365.18 115.446 365.364 114.901C365.547 114.356 365.637 113.677 365.631 112.864C365.631 112.107 365.536 111.487 365.347 111.002C365.158 110.518 364.855 110.159 364.437 109.925C364.02 109.692 363.466 109.575 362.776 109.575C362.153 109.575 361.621 109.717 361.181 110.001C360.747 110.284 360.413 110.677 360.18 111.178C359.951 111.673 359.837 112.238 359.837 112.872C359.837 113.507 359.929 114.105 360.113 114.667C360.302 115.224 360.608 115.677 361.031 116.028C361.46 116.373 362.036 116.546 362.759 116.546ZM381.662 124.076C380.576 124.076 379.644 123.928 378.865 123.633C378.086 123.344 377.46 122.954 376.987 122.465C376.514 121.975 376.185 121.432 376.002 120.837L378.723 120.177C378.846 120.428 379.024 120.675 379.257 120.92C379.491 121.171 379.806 121.376 380.201 121.538C380.602 121.705 381.105 121.788 381.712 121.788C382.569 121.788 383.279 121.58 383.841 121.162C384.403 120.75 384.684 120.071 384.684 119.125V116.696H384.534C384.378 117.008 384.15 117.328 383.849 117.656C383.554 117.984 383.162 118.26 382.672 118.482C382.188 118.705 381.578 118.816 380.844 118.816C379.859 118.816 378.965 118.585 378.164 118.123C377.368 117.656 376.733 116.96 376.26 116.036C375.793 115.107 375.559 113.944 375.559 112.547C375.559 111.139 375.793 109.95 376.26 108.982C376.733 108.008 377.371 107.271 378.172 106.77C378.974 106.263 379.867 106.01 380.852 106.01C381.603 106.01 382.221 106.138 382.705 106.394C383.195 106.645 383.585 106.948 383.874 107.304C384.163 107.655 384.383 107.986 384.534 108.298H384.701V106.177H387.681V119.209C387.681 120.305 387.419 121.212 386.896 121.93C386.373 122.648 385.658 123.185 384.751 123.541C383.843 123.898 382.814 124.076 381.662 124.076ZM381.687 116.445C382.327 116.445 382.872 116.29 383.323 115.978C383.774 115.666 384.116 115.218 384.35 114.634C384.584 114.049 384.701 113.348 384.701 112.53C384.701 111.723 384.584 111.016 384.35 110.41C384.122 109.803 383.782 109.333 383.331 108.999C382.886 108.659 382.338 108.49 381.687 108.49C381.013 108.49 380.451 108.665 380 109.015C379.55 109.366 379.21 109.848 378.982 110.46C378.754 111.066 378.64 111.756 378.64 112.53C378.64 113.315 378.754 114.002 378.982 114.592C379.216 115.176 379.558 115.633 380.009 115.961C380.465 116.284 381.024 116.445 381.687 116.445ZM390.778 119V106.177H393.667V108.356H393.817C394.084 107.621 394.526 107.048 395.144 106.636C395.762 106.219 396.499 106.01 397.357 106.01C398.225 106.01 398.957 106.222 399.552 106.645C400.153 107.062 400.576 107.632 400.821 108.356H400.955C401.238 107.644 401.717 107.076 402.391 106.653C403.07 106.224 403.874 106.01 404.803 106.01C405.983 106.01 406.946 106.383 407.692 107.129C408.437 107.875 408.81 108.963 408.81 110.393V119H405.78V110.86C405.78 110.065 405.568 109.483 405.145 109.116C404.722 108.743 404.205 108.556 403.593 108.556C402.864 108.556 402.293 108.784 401.881 109.241C401.475 109.692 401.272 110.279 401.272 111.002V119H398.308V110.735C398.308 110.073 398.108 109.544 397.707 109.149C397.312 108.754 396.794 108.556 396.154 108.556C395.72 108.556 395.325 108.668 394.969 108.89C394.613 109.107 394.329 109.416 394.117 109.817C393.906 110.212 393.8 110.674 393.8 111.203V119H390.778ZM415.566 119.259C414.754 119.259 414.022 119.114 413.371 118.825C412.725 118.53 412.213 118.096 411.835 117.522C411.462 116.949 411.275 116.242 411.275 115.402C411.275 114.678 411.409 114.08 411.676 113.607C411.943 113.134 412.308 112.755 412.77 112.472C413.231 112.188 413.752 111.974 414.331 111.829C414.915 111.679 415.519 111.57 416.142 111.503C416.894 111.425 417.503 111.356 417.97 111.295C418.438 111.228 418.777 111.128 418.989 110.994C419.206 110.855 419.315 110.641 419.315 110.351V110.301C419.315 109.672 419.128 109.185 418.755 108.84C418.382 108.495 417.845 108.323 417.144 108.323C416.404 108.323 415.817 108.484 415.383 108.807C414.954 109.13 414.665 109.511 414.514 109.95L411.693 109.55C411.915 108.771 412.283 108.119 412.795 107.596C413.307 107.068 413.933 106.672 414.673 106.411C415.413 106.144 416.231 106.01 417.127 106.01C417.745 106.01 418.36 106.082 418.972 106.227C419.584 106.372 420.144 106.611 420.65 106.945C421.157 107.273 421.563 107.721 421.869 108.289C422.181 108.857 422.337 109.566 422.337 110.418V119H419.431V117.239H419.331C419.148 117.595 418.889 117.929 418.555 118.24C418.227 118.546 417.812 118.794 417.311 118.983C416.816 119.167 416.234 119.259 415.566 119.259ZM416.351 117.038C416.958 117.038 417.484 116.918 417.929 116.679C418.374 116.434 418.716 116.111 418.956 115.711C419.2 115.31 419.323 114.873 419.323 114.4V112.889C419.228 112.967 419.067 113.039 418.839 113.106C418.616 113.173 418.366 113.231 418.087 113.281C417.809 113.332 417.534 113.376 417.261 113.415C416.988 113.454 416.752 113.487 416.551 113.515C416.1 113.576 415.697 113.677 415.341 113.816C414.985 113.955 414.704 114.15 414.498 114.4C414.292 114.645 414.189 114.962 414.189 115.352C414.189 115.908 414.392 116.329 414.798 116.612C415.204 116.896 415.722 117.038 416.351 117.038ZM425.375 119V106.177H428.397V119H425.375ZM426.895 104.357C426.416 104.357 426.004 104.199 425.659 103.881C425.314 103.558 425.142 103.172 425.142 102.721C425.142 102.264 425.314 101.878 425.659 101.56C426.004 101.238 426.416 101.076 426.895 101.076C427.379 101.076 427.791 101.238 428.13 101.56C428.475 101.878 428.648 102.264 428.648 102.721C428.648 103.172 428.475 103.558 428.13 103.881C427.791 104.199 427.379 104.357 426.895 104.357ZM434.527 101.903V119H431.505V101.903H434.527ZM439.497 119.184C438.99 119.184 438.556 119.006 438.194 118.649C437.832 118.293 437.654 117.859 437.66 117.347C437.654 116.846 437.832 116.418 438.194 116.061C438.556 115.705 438.99 115.527 439.497 115.527C439.986 115.527 440.412 115.705 440.774 116.061C441.141 116.418 441.328 116.846 441.333 117.347C441.328 117.687 441.239 117.995 441.066 118.274C440.899 118.552 440.676 118.775 440.398 118.942C440.125 119.103 439.825 119.184 439.497 119.184ZM450.047 119.25C448.767 119.25 447.667 118.969 446.749 118.407C445.836 117.845 445.132 117.069 444.637 116.078C444.147 115.082 443.902 113.935 443.902 112.639C443.902 111.336 444.153 110.187 444.654 109.191C445.155 108.189 445.861 107.41 446.774 106.853C447.692 106.291 448.778 106.01 450.03 106.01C451.071 106.01 451.992 106.202 452.793 106.586C453.6 106.965 454.243 107.502 454.722 108.197C455.2 108.887 455.473 109.694 455.54 110.618H452.651C452.534 110.001 452.256 109.486 451.816 109.074C451.382 108.656 450.801 108.448 450.072 108.448C449.454 108.448 448.911 108.615 448.444 108.949C447.976 109.277 447.612 109.75 447.35 110.368C447.094 110.986 446.966 111.726 446.966 112.589C446.966 113.462 447.094 114.214 447.35 114.843C447.606 115.466 447.965 115.947 448.427 116.287C448.895 116.621 449.443 116.788 450.072 116.788C450.517 116.788 450.915 116.704 451.265 116.537C451.622 116.365 451.919 116.117 452.159 115.794C452.398 115.471 452.562 115.079 452.651 114.617H455.54C455.467 115.524 455.2 116.329 454.738 117.03C454.276 117.725 453.648 118.271 452.852 118.666C452.056 119.056 451.121 119.25 450.047 119.25ZM463.615 119.25C462.362 119.25 461.277 118.975 460.359 118.424C459.441 117.873 458.728 117.102 458.222 116.111C457.721 115.121 457.47 113.963 457.47 112.639C457.47 111.314 457.721 110.154 458.222 109.157C458.728 108.161 459.441 107.388 460.359 106.837C461.277 106.286 462.362 106.01 463.615 106.01C464.867 106.01 465.952 106.286 466.871 106.837C467.789 107.388 468.498 108.161 468.999 109.157C469.506 110.154 469.759 111.314 469.759 112.639C469.759 113.963 469.506 115.121 468.999 116.111C468.498 117.102 467.789 117.873 466.871 118.424C465.952 118.975 464.867 119.25 463.615 119.25ZM463.631 116.829C464.31 116.829 464.878 116.643 465.334 116.27C465.791 115.892 466.13 115.385 466.353 114.751C466.581 114.116 466.695 113.409 466.695 112.63C466.695 111.846 466.581 111.136 466.353 110.501C466.13 109.861 465.791 109.352 465.334 108.974C464.878 108.595 464.31 108.406 463.631 108.406C462.936 108.406 462.357 108.595 461.895 108.974C461.439 109.352 461.096 109.861 460.868 110.501C460.645 111.136 460.534 111.846 460.534 112.63C460.534 113.409 460.645 114.116 460.868 114.751C461.096 115.385 461.439 115.892 461.895 116.27C462.357 116.643 462.936 116.829 463.631 116.829ZM472.324 119V106.177H475.213V108.356H475.363C475.63 107.621 476.072 107.048 476.69 106.636C477.308 106.219 478.045 106.01 478.902 106.01C479.771 106.01 480.503 106.222 481.098 106.645C481.699 107.062 482.122 107.632 482.367 108.356H482.501C482.784 107.644 483.263 107.076 483.936 106.653C484.615 106.224 485.42 106.01 486.349 106.01C487.529 106.01 488.492 106.383 489.238 107.129C489.983 107.875 490.356 108.963 490.356 110.393V119H487.326V110.86C487.326 110.065 487.114 109.483 486.691 109.116C486.268 108.743 485.751 108.556 485.139 108.556C484.41 108.556 483.839 108.784 483.427 109.241C483.021 109.692 482.818 110.279 482.818 111.002V119H479.854V110.735C479.854 110.073 479.654 109.544 479.253 109.149C478.858 108.754 478.34 108.556 477.7 108.556C477.266 108.556 476.871 108.668 476.515 108.89C476.159 109.107 475.875 109.416 475.663 109.817C475.452 110.212 475.346 110.674 475.346 111.203V119H472.324Z" fill="#747474"/>
<path d="M197 123.675H491.876V125.278H197V123.675Z" fill="#747474"/>
<a href="mailto:puturizky098@gmail.com">
<rect fill="black" fill-opacity="0" y="-0.22546" width="294.876" height="28.4509"/>
</a>
</g>
<defs>
<filter id="filter0_d_204_326" x="0" y="0" width="583" height="204" filterUnits="userSpaceOnUse" color-interpolation-filters="sRGB">
<feFlood flood-opacity="0" result="BackgroundImageFix"/>
<feColorMatrix in="SourceAlpha" type="matrix" values="0 0 0 0 0 0 0 0 0 0 0 0 0 0 0 0 0 0 127 0" result="hardAlpha"/>
<feOffset dy="4"/>
<feGaussianBlur stdDeviation="2"/>
<feComposite in2="hardAlpha" operator="out"/>
<feColorMatrix type="matrix" values="0 0 0 0 0 0 0 0 0 0 0 0 0 0 0 0 0 0 0.25 0"/>
<feBlend mode="normal" in2="BackgroundImageFix" result="effect1_dropShadow_204_326"/>
<feBlend mode="normal" in="SourceGraphic" in2="effect1_dropShadow_204_326" result="shape"/>
</filter>
</defs>
</svg>
