<svg width="575" height="196" viewBox="0 0 575 196" fill="none" xmlns="http://www.w3.org/2000/svg">
<rect x="2.5" y="2.5" width="570" height="191" rx="27.5" stroke="#6928E6" stroke-width="5"/>
<rect x="38" y="38" width="120" height="119" rx="25" fill="#6928E6"/>
<path d="M196.628 82.7207V63.9856H204.02C205.441 63.9856 206.651 64.257 207.652 64.7998C208.652 65.3365 209.414 66.0836 209.939 67.0411C210.469 67.9924 210.735 69.0902 210.735 70.3343C210.735 71.5785 210.466 72.6762 209.93 73.6276C209.393 74.579 208.615 75.32 207.597 75.8506C206.584 76.3811 205.359 76.6464 203.919 76.6464H199.208V73.4721H203.279C204.041 73.4721 204.669 73.341 205.163 73.0787C205.664 72.8104 206.036 72.4414 206.279 71.9718C206.53 71.4961 206.655 70.9503 206.655 70.3343C206.655 69.7123 206.53 69.1695 206.279 68.706C206.036 68.2364 205.664 67.8735 205.163 67.6174C204.663 67.3551 204.029 67.224 203.261 67.224H200.589V82.7207H196.628ZM217.131 74.5973V82.7207H213.234V63.9856H217.021V71.1485H217.186C217.503 70.3191 218.016 69.6696 218.723 69.2C219.43 68.7243 220.318 68.4864 221.385 68.4864C222.361 68.4864 223.212 68.6999 223.937 69.1268C224.669 69.5476 225.236 70.1544 225.639 70.9472C226.047 71.734 226.249 72.6762 226.243 73.774V82.7207H222.346V74.4692C222.352 73.6032 222.132 72.9293 221.687 72.4475C221.248 71.9657 220.632 71.7248 219.839 71.7248C219.308 71.7248 218.839 71.8377 218.43 72.0633C218.028 72.289 217.711 72.6183 217.479 73.0513C217.253 73.4782 217.137 73.9935 217.131 74.5973ZM235.658 82.9951C234.237 82.9951 233.008 82.6933 231.972 82.0895C230.941 81.4796 230.145 80.6319 229.584 79.5464C229.023 78.4547 228.742 77.1892 228.742 75.7499C228.742 74.2985 229.023 73.0299 229.584 71.9444C230.145 70.8527 230.941 70.005 231.972 69.4012C233.008 68.7914 234.237 68.4864 235.658 68.4864C237.079 68.4864 238.305 68.7914 239.336 69.4012C240.372 70.005 241.171 70.8527 241.732 71.9444C242.294 73.0299 242.574 74.2985 242.574 75.7499C242.574 77.1892 242.294 78.4547 241.732 79.5464C241.171 80.6319 240.372 81.4796 239.336 82.0895C238.305 82.6933 237.079 82.9951 235.658 82.9951ZM235.677 79.9763C236.323 79.9763 236.863 79.7933 237.296 79.4274C237.729 79.0554 238.055 78.5492 238.275 77.9089C238.5 77.2685 238.613 76.5397 238.613 75.7225C238.613 74.9053 238.5 74.1765 238.275 73.5361C238.055 72.8958 237.729 72.3896 237.296 72.0176C236.863 71.6455 236.323 71.4595 235.677 71.4595C235.024 71.4595 234.475 71.6455 234.03 72.0176C233.591 72.3896 233.258 72.8958 233.033 73.5361C232.813 74.1765 232.703 74.9053 232.703 75.7225C232.703 76.5397 232.813 77.2685 233.033 77.9089C233.258 78.5492 233.591 79.0554 234.03 79.4274C234.475 79.7933 235.024 79.9763 235.677 79.9763ZM249.005 74.5973V82.7207H245.108V68.6694H248.822V71.1485H248.987C249.298 70.3313 249.819 69.6848 250.551 69.2091C251.283 68.7273 252.17 68.4864 253.213 68.4864C254.189 68.4864 255.04 68.6999 255.765 69.1268C256.491 69.5537 257.055 70.1636 257.458 70.9564C257.86 71.7431 258.062 72.6823 258.062 73.774V82.7207H254.165V74.4692C254.171 73.6093 253.951 72.9385 253.506 72.4567C253.061 71.9688 252.448 71.7248 251.667 71.7248C251.143 71.7248 250.679 71.8377 250.277 72.0633C249.88 72.289 249.569 72.6183 249.344 73.0513C249.124 73.4782 249.011 73.9935 249.005 74.5973ZM267.537 82.9951C266.091 82.9951 264.847 82.7024 263.804 82.1169C262.768 81.5254 261.969 80.6899 261.408 79.6104C260.846 78.5248 260.566 77.2411 260.566 75.7591C260.566 74.3137 260.846 73.0452 261.408 71.9535C261.969 70.8619 262.758 70.0111 263.777 69.4012C264.801 68.7914 266.003 68.4864 267.381 68.4864C268.308 68.4864 269.171 68.6359 269.97 68.9347C270.775 69.2274 271.476 69.6696 272.074 70.2611C272.678 70.8527 273.147 71.5968 273.483 72.4933C273.818 73.3837 273.986 74.4265 273.986 75.6219V76.6922H262.121V74.2771H270.318C270.318 73.716 270.196 73.219 269.952 72.786C269.708 72.353 269.369 72.0145 268.936 71.7706C268.509 71.5205 268.012 71.3955 267.445 71.3955C266.854 71.3955 266.329 71.5327 265.872 71.8072C265.42 72.0755 265.067 72.4384 264.811 72.8958C264.554 73.3471 264.423 73.8502 264.417 74.4052V76.7013C264.417 77.3966 264.545 77.9973 264.801 78.5035C265.064 79.0097 265.433 79.4 265.908 79.6744C266.384 79.9489 266.948 80.0861 267.601 80.0861C268.034 80.0861 268.43 80.0251 268.79 79.9031C269.15 79.7812 269.458 79.5982 269.714 79.3542C269.97 79.1103 270.165 78.8115 270.299 78.4577L273.904 78.6956C273.721 79.5616 273.346 80.3178 272.778 80.9643C272.217 81.6046 271.492 82.1047 270.601 82.4646C269.717 82.8183 268.695 82.9951 267.537 82.9951ZM298.235 63.9856V82.7207H294.814L286.663 70.929H286.526V82.7207H282.565V63.9856H286.041L294.128 75.7682H294.292V63.9856H298.235ZM307.783 82.9951C306.362 82.9951 305.133 82.6933 304.097 82.0895C303.066 81.4796 302.27 80.6319 301.709 79.5464C301.148 78.4547 300.867 77.1892 300.867 75.7499C300.867 74.2985 301.148 73.0299 301.709 71.9444C302.27 70.8527 303.066 70.005 304.097 69.4012C305.133 68.7914 306.362 68.4864 307.783 68.4864C309.204 68.4864 310.43 68.7914 311.461 69.4012C312.497 70.005 313.296 70.8527 313.857 71.9444C314.419 73.0299 314.699 74.2985 314.699 75.7499C314.699 77.1892 314.419 78.4547 313.857 79.5464C313.296 80.6319 312.497 81.4796 311.461 82.0895C310.43 82.6933 309.204 82.9951 307.783 82.9951ZM307.802 79.9763C308.448 79.9763 308.988 79.7933 309.421 79.4274C309.854 79.0554 310.18 78.5492 310.4 77.9089C310.625 77.2685 310.738 76.5397 310.738 75.7225C310.738 74.9053 310.625 74.1765 310.4 73.5361C310.18 72.8958 309.854 72.3896 309.421 72.0176C308.988 71.6455 308.448 71.4595 307.802 71.4595C307.149 71.4595 306.6 71.6455 306.155 72.0176C305.716 72.3896 305.383 72.8958 305.158 73.5361C304.938 74.1765 304.828 74.9053 304.828 75.7225C304.828 76.5397 304.938 77.2685 305.158 77.9089C305.383 78.5492 305.716 79.0554 306.155 79.4274C306.6 79.7933 307.149 79.9763 307.802 79.9763Z" fill="black"/>
<path d="M199.595 116.262V104.708H202.216V116.262H199.595ZM195.129 111.795V109.174H206.683V111.795H195.129ZM216.598 119.234C215.78 119.228 214.982 119.086 214.203 118.808C213.423 118.524 212.722 118.065 212.099 117.431C211.475 116.79 210.98 115.942 210.613 114.884C210.245 113.821 210.065 112.505 210.07 110.936C210.07 109.472 210.226 108.167 210.538 107.02C210.849 105.874 211.297 104.905 211.882 104.115C212.466 103.319 213.17 102.713 213.994 102.295C214.823 101.878 215.75 101.669 216.774 101.669C217.848 101.669 218.8 101.88 219.629 102.303C220.464 102.726 221.137 103.305 221.649 104.04C222.161 104.769 222.478 105.593 222.601 106.511H219.554C219.398 105.854 219.078 105.331 218.594 104.942C218.115 104.546 217.508 104.349 216.774 104.349C215.588 104.349 214.676 104.864 214.036 105.893C213.401 106.923 213.081 108.336 213.076 110.134H213.192C213.465 109.644 213.819 109.224 214.253 108.874C214.687 108.523 215.176 108.253 215.722 108.064C216.273 107.869 216.854 107.772 217.467 107.772C218.468 107.772 219.367 108.011 220.163 108.49C220.965 108.968 221.599 109.628 222.067 110.468C222.534 111.303 222.765 112.26 222.76 113.34C222.765 114.464 222.509 115.474 221.991 116.37C221.474 117.261 220.753 117.962 219.829 118.474C218.905 118.986 217.828 119.239 216.598 119.234ZM216.582 116.729C217.188 116.729 217.731 116.582 218.21 116.287C218.688 115.992 219.067 115.594 219.345 115.093C219.623 114.592 219.76 114.03 219.754 113.407C219.76 112.794 219.626 112.241 219.353 111.745C219.086 111.25 218.716 110.858 218.243 110.568C217.77 110.279 217.23 110.134 216.624 110.134C216.173 110.134 215.753 110.22 215.363 110.393C214.973 110.565 214.634 110.805 214.344 111.111C214.055 111.411 213.827 111.762 213.66 112.163C213.498 112.558 213.415 112.981 213.409 113.432C213.415 114.027 213.554 114.575 213.827 115.076C214.1 115.577 214.475 115.978 214.954 116.278C215.433 116.579 215.975 116.729 216.582 116.729ZM225.581 119V116.763L231.517 110.944C232.085 110.371 232.558 109.861 232.936 109.416C233.315 108.971 233.598 108.54 233.788 108.122C233.977 107.705 234.071 107.26 234.071 106.786C234.071 106.247 233.949 105.785 233.704 105.401C233.459 105.011 233.123 104.711 232.694 104.499C232.265 104.288 231.778 104.182 231.233 104.182C230.671 104.182 230.178 104.299 229.755 104.532C229.332 104.761 229.004 105.086 228.77 105.509C228.542 105.932 228.428 106.436 228.428 107.02H225.481C225.481 105.935 225.729 104.992 226.224 104.19C226.719 103.389 227.401 102.768 228.269 102.328C229.143 101.889 230.145 101.669 231.275 101.669C232.421 101.669 233.429 101.883 234.297 102.312C235.165 102.74 235.838 103.328 236.317 104.073C236.801 104.819 237.043 105.671 237.043 106.628C237.043 107.268 236.921 107.897 236.676 108.515C236.431 109.132 236 109.817 235.382 110.568C234.77 111.32 233.91 112.23 232.802 113.298L229.856 116.295V116.412H237.302V119H225.581ZM252.091 119.234C250.85 119.234 249.748 119.025 248.785 118.608C247.828 118.19 247.077 117.62 246.531 116.896C245.991 116.167 245.724 115.341 245.73 114.417C245.724 113.699 245.88 113.039 246.197 112.438C246.515 111.837 246.943 111.336 247.483 110.936C248.028 110.529 248.635 110.27 249.303 110.159V110.042C248.423 109.848 247.711 109.399 247.166 108.698C246.626 107.991 246.359 107.176 246.364 106.252C246.359 105.373 246.604 104.588 247.099 103.898C247.594 103.208 248.273 102.665 249.136 102.27C249.999 101.869 250.984 101.669 252.091 101.669C253.188 101.669 254.164 101.869 255.021 102.27C255.884 102.665 256.563 103.208 257.058 103.898C257.559 104.588 257.81 105.373 257.81 106.252C257.81 107.176 257.534 107.991 256.983 108.698C256.438 109.399 255.734 109.848 254.871 110.042V110.159C255.539 110.27 256.14 110.529 256.674 110.936C257.214 111.336 257.643 111.837 257.96 112.438C258.283 113.039 258.444 113.699 258.444 114.417C258.444 115.341 258.172 116.167 257.626 116.896C257.081 117.62 256.329 118.19 255.372 118.608C254.42 119.025 253.327 119.234 252.091 119.234ZM252.091 116.846C252.731 116.846 253.288 116.738 253.761 116.521C254.234 116.298 254.601 115.986 254.863 115.586C255.124 115.185 255.258 114.723 255.264 114.2C255.258 113.654 255.116 113.173 254.838 112.755C254.565 112.333 254.189 112.001 253.711 111.762C253.238 111.523 252.698 111.403 252.091 111.403C251.479 111.403 250.934 111.523 250.455 111.762C249.976 112.001 249.598 112.333 249.32 112.755C249.047 113.173 248.913 113.654 248.919 114.2C248.913 114.723 249.041 115.185 249.303 115.586C249.564 115.981 249.932 116.29 250.405 116.512C250.883 116.735 251.446 116.846 252.091 116.846ZM252.091 109.057C252.614 109.057 253.076 108.951 253.477 108.74C253.883 108.528 254.203 108.234 254.437 107.855C254.671 107.477 254.79 107.04 254.796 106.544C254.79 106.055 254.674 105.626 254.445 105.259C254.217 104.886 253.9 104.599 253.494 104.399C253.087 104.193 252.62 104.09 252.091 104.09C251.551 104.09 251.075 104.193 250.664 104.399C250.257 104.599 249.94 104.886 249.712 105.259C249.489 105.626 249.381 106.055 249.386 106.544C249.381 107.04 249.492 107.477 249.72 107.855C249.954 108.228 250.274 108.523 250.68 108.74C251.092 108.951 251.562 109.057 252.091 109.057ZM267.133 119.234C266.02 119.234 265.023 119.025 264.144 118.608C263.265 118.185 262.566 117.606 262.049 116.871C261.537 116.137 261.264 115.296 261.23 114.35H264.236C264.291 115.051 264.595 115.625 265.146 116.07C265.697 116.509 266.359 116.729 267.133 116.729C267.739 116.729 268.279 116.59 268.752 116.312C269.225 116.034 269.598 115.647 269.871 115.151C270.144 114.656 270.277 114.091 270.272 113.457C270.277 112.811 270.141 112.238 269.863 111.737C269.584 111.236 269.203 110.844 268.719 110.56C268.235 110.27 267.678 110.126 267.049 110.126C266.537 110.12 266.033 110.215 265.538 110.41C265.043 110.604 264.65 110.86 264.361 111.178L261.564 110.719L262.458 101.903H272.375V104.491H265.021L264.528 109.024H264.628C264.945 108.651 265.393 108.342 265.972 108.097C266.551 107.847 267.186 107.721 267.876 107.721C268.911 107.721 269.835 107.966 270.647 108.456C271.46 108.94 272.1 109.608 272.567 110.46C273.035 111.311 273.269 112.285 273.269 113.382C273.269 114.511 273.007 115.519 272.484 116.404C271.966 117.283 271.246 117.976 270.322 118.482C269.403 118.983 268.34 119.234 267.133 119.234ZM287.974 119.234C286.733 119.234 285.631 119.025 284.668 118.608C283.711 118.19 282.96 117.62 282.414 116.896C281.874 116.167 281.607 115.341 281.613 114.417C281.607 113.699 281.763 113.039 282.08 112.438C282.397 111.837 282.826 111.336 283.366 110.936C283.911 110.529 284.518 110.27 285.186 110.159V110.042C284.306 109.848 283.594 109.399 283.049 108.698C282.509 107.991 282.242 107.176 282.247 106.252C282.242 105.373 282.487 104.588 282.982 103.898C283.477 103.208 284.156 102.665 285.019 102.27C285.882 101.869 286.867 101.669 287.974 101.669C289.071 101.669 290.047 101.869 290.904 102.27C291.767 102.665 292.446 103.208 292.941 103.898C293.442 104.588 293.693 105.373 293.693 106.252C293.693 107.176 293.417 107.991 292.866 108.698C292.321 109.399 291.617 109.848 290.754 110.042V110.159C291.422 110.27 292.023 110.529 292.557 110.936C293.097 111.336 293.526 111.837 293.843 112.438C294.166 113.039 294.327 113.699 294.327 114.417C294.327 115.341 294.054 116.167 293.509 116.896C292.964 117.62 292.212 118.19 291.255 118.608C290.303 119.025 289.21 119.234 287.974 119.234ZM287.974 116.846C288.614 116.846 289.171 116.738 289.644 116.521C290.117 116.298 290.484 115.986 290.746 115.586C291.007 115.185 291.141 114.723 291.146 114.2C291.141 113.654 290.999 113.173 290.721 112.755C290.448 112.333 290.072 112.001 289.594 111.762C289.121 111.523 288.581 111.403 287.974 111.403C287.362 111.403 286.817 111.523 286.338 111.762C285.859 112.001 285.481 112.333 285.203 112.755C284.93 113.173 284.796 113.654 284.802 114.2C284.796 114.723 284.924 115.185 285.186 115.586C285.447 115.981 285.815 116.29 286.288 116.512C286.766 116.735 287.329 116.846 287.974 116.846ZM287.974 109.057C288.497 109.057 288.959 108.951 289.36 108.74C289.766 108.528 290.086 108.234 290.32 107.855C290.554 107.477 290.673 107.04 290.679 106.544C290.673 106.055 290.557 105.626 290.328 105.259C290.1 104.886 289.783 104.599 289.377 104.399C288.97 104.193 288.503 104.09 287.974 104.09C287.434 104.09 286.958 104.193 286.547 104.399C286.14 104.599 285.823 104.886 285.595 105.259C285.372 105.626 285.264 106.055 285.269 106.544C285.264 107.04 285.375 107.477 285.603 107.855C285.837 108.228 286.157 108.523 286.563 108.74C286.975 108.951 287.445 109.057 287.974 109.057ZM297.072 119V116.763L303.007 110.944C303.575 110.371 304.048 109.861 304.427 109.416C304.805 108.971 305.089 108.54 305.278 108.122C305.467 107.705 305.562 107.26 305.562 106.786C305.562 106.247 305.439 105.785 305.195 105.401C304.95 105.011 304.613 104.711 304.184 104.499C303.756 104.288 303.269 104.182 302.723 104.182C302.161 104.182 301.669 104.299 301.246 104.532C300.823 104.761 300.494 105.086 300.261 105.509C300.033 105.932 299.918 106.436 299.918 107.02H296.971C296.971 105.935 297.219 104.992 297.714 104.19C298.21 103.389 298.892 102.768 299.76 102.328C300.634 101.889 301.635 101.669 302.765 101.669C303.912 101.669 304.919 101.883 305.787 102.312C306.655 102.74 307.329 103.328 307.808 104.073C308.292 104.819 308.534 105.671 308.534 106.628C308.534 107.268 308.411 107.897 308.167 108.515C307.922 109.132 307.49 109.817 306.873 110.568C306.26 111.32 305.4 112.23 304.293 113.298L301.346 116.295V116.412H308.793V119H297.072ZM317.608 101.669C318.427 101.675 319.222 101.819 319.996 102.103C320.775 102.381 321.476 102.838 322.1 103.472C322.723 104.101 323.218 104.944 323.586 106.002C323.953 107.059 324.137 108.367 324.137 109.925C324.142 111.395 323.987 112.708 323.669 113.866C323.358 115.018 322.91 115.992 322.325 116.788C321.741 117.584 321.037 118.19 320.213 118.608C319.389 119.025 318.463 119.234 317.433 119.234C316.353 119.234 315.396 119.022 314.561 118.599C313.732 118.176 313.061 117.597 312.549 116.863C312.037 116.128 311.723 115.288 311.606 114.342H314.653C314.809 115.021 315.126 115.561 315.605 115.961C316.089 116.356 316.698 116.554 317.433 116.554C318.619 116.554 319.531 116.039 320.171 115.01C320.811 113.98 321.131 112.55 321.131 110.719H321.015C320.742 111.208 320.388 111.631 319.954 111.987C319.52 112.338 319.028 112.608 318.477 112.797C317.931 112.986 317.352 113.081 316.74 113.081C315.738 113.081 314.837 112.842 314.035 112.363C313.24 111.884 312.608 111.228 312.14 110.393C311.678 109.558 311.445 108.604 311.439 107.529C311.439 106.416 311.695 105.417 312.207 104.532C312.725 103.642 313.445 102.941 314.369 102.429C315.293 101.911 316.373 101.658 317.608 101.669ZM317.617 104.173C317.016 104.173 316.473 104.321 315.989 104.616C315.51 104.905 315.132 105.3 314.854 105.801C314.581 106.297 314.444 106.85 314.444 107.463C314.45 108.069 314.586 108.62 314.854 109.116C315.126 109.611 315.496 110.003 315.964 110.293C316.437 110.582 316.977 110.727 317.583 110.727C318.034 110.727 318.454 110.641 318.844 110.468C319.234 110.296 319.573 110.056 319.862 109.75C320.157 109.438 320.386 109.085 320.547 108.69C320.714 108.295 320.795 107.877 320.789 107.438C320.789 106.853 320.65 106.313 320.372 105.818C320.099 105.323 319.723 104.925 319.245 104.624C318.772 104.324 318.229 104.173 317.617 104.173ZM332.748 119V116.763L338.684 110.944C339.251 110.371 339.724 109.861 340.103 109.416C340.481 108.971 340.765 108.54 340.954 108.122C341.144 107.705 341.238 107.26 341.238 106.786C341.238 106.247 341.116 105.785 340.871 105.401C340.626 105.011 340.289 104.711 339.861 104.499C339.432 104.288 338.945 104.182 338.4 104.182C337.838 104.182 337.345 104.299 336.922 104.532C336.499 104.761 336.171 105.086 335.937 105.509C335.709 105.932 335.595 106.436 335.595 107.02H332.648C332.648 105.935 332.896 104.992 333.391 104.19C333.886 103.389 334.568 102.768 335.436 102.328C336.31 101.889 337.312 101.669 338.442 101.669C339.588 101.669 340.595 101.883 341.464 102.312C342.332 102.74 343.005 103.328 343.484 104.073C343.968 104.819 344.21 105.671 344.21 106.628C344.21 107.268 344.088 107.897 343.843 108.515C343.598 109.132 343.167 109.817 342.549 110.568C341.937 111.32 341.077 112.23 339.969 113.298L337.022 116.295V116.412H344.469V119H332.748ZM353.293 119.234C352.18 119.234 351.184 119.025 350.304 118.608C349.425 118.185 348.727 117.606 348.209 116.871C347.697 116.137 347.424 115.296 347.391 114.35H350.396C350.452 115.051 350.755 115.625 351.306 116.07C351.857 116.509 352.52 116.729 353.293 116.729C353.9 116.729 354.44 116.59 354.913 116.312C355.386 116.034 355.759 115.647 356.031 115.151C356.304 114.656 356.438 114.091 356.432 113.457C356.438 112.811 356.301 112.238 356.023 111.737C355.745 111.236 355.364 110.844 354.879 110.56C354.395 110.27 353.839 110.126 353.21 110.126C352.698 110.12 352.194 110.215 351.699 110.41C351.203 110.604 350.811 110.86 350.522 111.178L347.725 110.719L348.618 101.903H358.536V104.491H351.181L350.688 109.024H350.789C351.106 108.651 351.554 108.342 352.133 108.097C352.712 107.847 353.346 107.721 354.036 107.721C355.071 107.721 355.995 107.966 356.808 108.456C357.62 108.94 358.26 109.608 358.728 110.46C359.195 111.311 359.429 112.285 359.429 113.382C359.429 114.511 359.168 115.519 358.644 116.404C358.127 117.283 357.406 117.976 356.482 118.482C355.564 118.983 354.501 119.234 353.293 119.234ZM362.226 119V116.763L368.161 110.944C368.729 110.371 369.202 109.861 369.581 109.416C369.959 108.971 370.243 108.54 370.432 108.122C370.621 107.705 370.716 107.26 370.716 106.786C370.716 106.247 370.594 105.785 370.349 105.401C370.104 105.011 369.767 104.711 369.339 104.499C368.91 104.288 368.423 104.182 367.878 104.182C367.315 104.182 366.823 104.299 366.4 104.532C365.977 104.761 365.649 105.086 365.415 105.509C365.187 105.932 365.073 106.436 365.073 107.02H362.126C362.126 105.935 362.373 104.992 362.869 104.19C363.364 103.389 364.046 102.768 364.914 102.328C365.788 101.889 366.79 101.669 367.919 101.669C369.066 101.669 370.073 101.883 370.941 102.312C371.81 102.74 372.483 103.328 372.962 104.073C373.446 104.819 373.688 105.671 373.688 106.628C373.688 107.268 373.566 107.897 373.321 108.515C373.076 109.132 372.644 109.817 372.027 110.568C371.414 111.32 370.555 112.23 369.447 113.298L366.5 116.295V116.412H373.947V119H362.226ZM382.349 115.828V113.365L389.604 101.903H391.658V105.409H390.405L385.522 113.148V113.281H395.648V115.828H382.349ZM390.506 119V115.076L390.539 113.974V101.903H393.461V119H390.506ZM404.393 119.234C403.152 119.234 402.05 119.025 401.087 118.608C400.13 118.19 399.378 117.62 398.833 116.896C398.293 116.167 398.026 115.341 398.032 114.417C398.026 113.699 398.182 113.039 398.499 112.438C398.816 111.837 399.245 111.336 399.785 110.936C400.33 110.529 400.937 110.27 401.605 110.159V110.042C400.725 109.848 400.013 109.399 399.467 108.698C398.928 107.991 398.66 107.176 398.666 106.252C398.66 105.373 398.905 104.588 399.401 103.898C399.896 103.208 400.575 102.665 401.438 102.27C402.3 101.869 403.285 101.669 404.393 101.669C405.489 101.669 406.466 101.869 407.323 102.27C408.186 102.665 408.865 103.208 409.36 103.898C409.861 104.588 410.111 105.373 410.111 106.252C410.111 107.176 409.836 107.991 409.285 108.698C408.74 109.399 408.036 109.848 407.173 110.042V110.159C407.841 110.27 408.442 110.529 408.976 110.936C409.516 111.336 409.945 111.837 410.262 112.438C410.585 113.039 410.746 113.699 410.746 114.417C410.746 115.341 410.473 116.167 409.928 116.896C409.382 117.62 408.631 118.19 407.674 118.608C406.722 119.025 405.628 119.234 404.393 119.234ZM404.393 116.846C405.033 116.846 405.59 116.738 406.063 116.521C406.536 116.298 406.903 115.986 407.165 115.586C407.426 115.185 407.56 114.723 407.565 114.2C407.56 113.654 407.418 113.173 407.14 112.755C406.867 112.333 406.491 112.001 406.012 111.762C405.539 111.523 405 111.403 404.393 111.403C403.781 111.403 403.235 111.523 402.757 111.762C402.278 112.001 401.9 112.333 401.621 112.755C401.349 113.173 401.215 113.654 401.221 114.2C401.215 114.723 401.343 115.185 401.605 115.586C401.866 115.981 402.233 116.29 402.707 116.512C403.185 116.735 403.747 116.846 404.393 116.846ZM404.393 109.057C404.916 109.057 405.378 108.951 405.779 108.74C406.185 108.528 406.505 108.234 406.739 107.855C406.973 107.477 407.092 107.04 407.098 106.544C407.092 106.055 406.975 105.626 406.747 105.259C406.519 104.886 406.202 104.599 405.795 104.399C405.389 104.193 404.922 104.09 404.393 104.09C403.853 104.09 403.377 104.193 402.965 104.399C402.559 104.599 402.242 104.886 402.014 105.259C401.791 105.626 401.683 106.055 401.688 106.544C401.683 107.04 401.794 107.477 402.022 107.855C402.256 108.228 402.576 108.523 402.982 108.74C403.394 108.951 403.864 109.057 404.393 109.057ZM413.182 115.828V113.365L420.436 101.903H422.49V105.409H421.238L416.354 113.148V113.281H426.48V115.828H413.182ZM421.338 119V115.076L421.371 113.974V101.903H424.293V119H421.338Z" fill="#747474"/>
<path d="M193 123.675H427.624V125.278H193V123.675Z" fill="#747474"/>
<a href="mailto:puturizky098@gmail.com">
<rect fill="black" fill-opacity="0" y="-0.22546" width="234.624" height="28.4509"/>
</a>
<path d="M126.263 78.1401C116.335 62.7501 96.0051 58.1901 80.2826 67.7376C64.9401 77.2851 60.0001 98.0901 69.9276 113.433L70.7351 114.668L67.4101 127.113L79.8551 123.788L81.0901 124.595C86.4576 127.493 92.3001 129.155 98.0951 129.155C104.318 129.155 110.54 127.493 115.908 124.168C131.25 114.193 135.81 93.8151 126.263 78.0451V78.1401ZM117.57 110.155C115.908 112.625 113.818 114.288 110.92 114.715C109.258 114.715 107.168 115.523 98.9026 112.245C91.8726 108.92 86.0301 103.505 81.8976 97.2826C79.4276 94.3851 78.1451 90.6326 77.7651 86.8801C77.7651 83.5551 79.0001 80.6576 81.0901 78.5676C81.8976 77.7601 82.7526 77.3326 83.5601 77.3326H85.6501C86.4576 77.3326 87.3126 77.3326 87.7401 78.9951C88.5476 81.0851 90.6376 86.0726 90.6376 86.5001C91.0651 86.9276 90.8751 90.1101 88.9751 91.9151C87.9301 93.1026 87.7401 93.1501 88.1676 94.0051C89.8301 96.4751 91.9201 98.9926 93.9626 101.083C96.4326 103.173 98.9501 104.835 101.848 106.07C102.655 106.498 103.51 106.498 103.938 105.643C104.365 104.835 106.408 102.745 107.263 101.89C108.07 101.083 108.498 101.083 109.353 101.463L116.003 104.788C116.81 105.215 117.665 105.595 118.093 106.023C118.52 107.258 118.52 108.92 117.665 110.155H117.57Z" fill="#F8F8F8"/>
</svg>
