<svg width="63" height="63" viewBox="0 0 63 63" fill="none" xmlns="http://www.w3.org/2000/svg">
<circle cx="31.5" cy="31.5" r="31" stroke="black"/>
<g clip-path="url(#clip0_204_23)">
<path d="M32 18.0632C36.5391 18.0632 37.0768 18.0805 38.8693 18.1621C40.5268 18.2378 41.427 18.5147 42.0261 18.7476C42.8196 19.056 43.3859 19.4244 43.9807 20.0192C44.5757 20.6141 44.944 21.1804 45.2524 21.9739C45.4853 22.573 45.7622 23.4732 45.8379 25.1305C45.9195 26.9232 45.9368 27.4609 45.9368 32C45.9368 36.5393 45.9195 37.0769 45.8379 38.8695C45.7622 40.527 45.4853 41.427 45.2524 42.0261C44.944 42.8196 44.5756 43.386 43.9807 43.9809C43.3859 44.5757 42.8196 44.9442 42.0261 45.2524C41.427 45.4853 40.5268 45.7623 38.8693 45.8379C37.077 45.9197 36.5394 45.9369 32 45.9369C27.4605 45.9369 26.9228 45.9197 25.1305 45.8379C23.473 45.7622 22.573 45.4853 21.9739 45.2524C21.1804 44.9442 20.614 44.5757 20.0191 43.9809C19.4243 43.3859 19.0558 42.8196 18.7476 42.0261C18.5147 41.4272 18.2377 40.527 18.1621 38.8695C18.0803 37.0769 18.0631 36.5393 18.0631 32C18.0631 27.4609 18.0803 26.9232 18.1621 25.1307C18.2378 23.4732 18.5147 22.573 18.7476 21.9739C19.0558 21.1804 19.4243 20.6141 20.0191 20.0192C20.6141 19.4242 21.1804 19.056 21.9739 18.7476C22.5728 18.5147 23.473 18.2378 25.1305 18.1621C26.9231 18.0805 27.4607 18.0632 32 18.0632ZM32 15C27.383 15 26.8041 15.0195 24.991 15.1023C23.1814 15.1849 21.9456 15.4723 20.8643 15.8925C19.7463 16.3269 18.7983 16.9082 17.8532 17.8533C16.9081 18.7984 16.3269 19.7465 15.8925 20.8643C15.4721 21.9457 15.1849 23.1815 15.1023 24.991C15.0195 26.8041 15 27.383 15 32C15 36.617 15.0195 37.1959 15.1023 39.009C15.1849 40.8186 15.4721 42.0544 15.8925 43.1357C16.3268 44.2535 16.9081 45.2017 17.8532 46.1468C18.7983 47.0919 19.7463 47.6731 20.8643 48.1075C21.9457 48.5279 23.1814 48.8151 24.9908 48.8977C26.8041 48.9805 27.383 49 32 49C36.617 49 37.1959 48.9805 39.009 48.8977C40.8185 48.8151 42.0543 48.5279 43.1355 48.1075C44.2535 47.6732 45.2016 47.0919 46.1467 46.1468C47.0918 45.2017 47.6731 44.2537 48.1075 43.1357C48.5277 42.0543 48.8151 40.8186 48.8977 39.0092C48.9805 37.1959 49 36.617 49 32C49 27.383 48.9805 26.8041 48.8977 24.991C48.8151 23.1815 48.5277 21.9457 48.1075 20.8645C47.6731 19.7465 47.0918 18.7984 46.1467 17.8533C45.2016 16.9082 44.2535 16.3268 43.1357 15.8925C42.0543 15.4723 40.8185 15.1849 39.009 15.1023C37.1959 15.0195 36.617 15 32 15ZM32 23.2702C27.1786 23.2702 23.2702 27.1789 23.2702 32C23.2702 36.8214 27.1786 40.7298 32 40.7298C36.8212 40.7298 40.7298 36.8214 40.7298 32C40.7298 27.1788 36.8212 23.2702 32 23.2702ZM32 37.6667C28.8704 37.6667 26.3333 35.1296 26.3333 32C26.3333 28.8704 28.8704 26.3333 32 26.3333C35.1296 26.3333 37.6667 28.8704 37.6667 32C37.6667 35.1296 35.1296 37.6667 32 37.6667ZM43.1145 22.9253C43.1145 24.0521 42.2013 24.9653 41.0745 24.9653C39.9479 24.9653 39.0345 24.0521 39.0345 22.9253C39.0345 21.7987 39.9479 20.8853 41.0745 20.8853C42.2013 20.8853 43.1145 21.7987 43.1145 22.9253Z" fill="#0A0A08"/>
</g>
<defs>
<clipPath id="clip0_204_23">
<rect width="34" height="34" fill="white" transform="translate(15 15)"/>
</clipPath>
</defs>
</svg>
